<!--?xml version="1.0" encoding="UTF-8" standalone="no"?-->

<svg width="100%" height="100%" viewBox="0 0 863 732" version="1.1" xmlns="http://www.w3.org/2000/svg" xmlns:xlink="http://www.w3.org/1999/xlink" xml:space="preserve" xmlns:serif="http://www.serif.com/" style="fill-rule: evenodd; clip-rule: evenodd; stroke-linejoin: round; stroke-miterlimit: 2;">
    <g transform="matrix(1,0,0,1,-131.094,-147.575)">
        <g transform="matrix(0.413946,0,0,0.413946,-9.20351,72.471)">
            <path d="M543.934,589.407C539.417,588.116 534.9,586.987 530.383,586.019C525.866,585.051 521.672,583.438 517.8,581.179C513.928,578.921 510.218,576.178 506.669,572.952C503.119,569.725 499.409,566.499 495.537,563.272C492.956,560.046 490.375,556.819 487.794,553.593C485.213,550.366 483.277,546.979 481.986,543.43C480.696,539.88 479.566,536.17 478.598,532.298C477.63,528.427 477.469,524.232 478.114,519.715C479.405,515.198 480.373,510.681 481.018,506.164C481.664,501.647 483.115,497.453 485.374,493.581C487.632,489.709 490.536,485.999 494.085,482.45C497.634,478.901 501.022,475.19 504.249,471.318C508.766,468.092 513.444,465.027 518.284,462.123C523.123,459.219 528.286,457.122 533.771,455.831C539.256,454.541 545.063,454.057 551.194,454.379C557.324,454.702 563.293,454.863 569.1,454.863L603.946,458.735L603.946,453.896L602.01,404.531C593.621,404.531 586.039,404.208 579.264,403.563C572.488,402.918 565.39,402.595 557.969,402.595C550.548,402.595 543.289,402.111 536.191,401.143C529.092,400.175 521.994,399.691 514.896,399.691L498.441,400.659C497.151,400.014 496.021,399.53 495.053,399.207C494.085,398.884 492.956,398.562 491.666,398.239C490.375,397.917 489.246,397.433 488.278,396.787C487.31,396.142 486.181,395.497 484.89,394.851C484.245,393.561 483.438,392.109 482.47,390.496C481.502,388.882 480.857,387.269 480.534,385.656C480.212,384.043 480.05,382.591 480.05,381.3L480.05,376.461L484.89,366.781C487.471,364.2 490.698,362.748 494.569,362.426C498.441,362.103 502.474,361.942 506.669,361.942C510.863,361.942 514.896,361.78 518.768,361.458C522.64,361.135 526.511,360.974 530.383,360.974C535.545,362.264 541.192,363.071 547.322,363.393C553.452,363.716 559.421,364.039 565.229,364.361C571.036,364.684 576.844,365.007 582.652,365.329C588.459,365.652 594.912,365.813 602.01,365.813L602.01,361.942L599.106,288.378L517.8,287.411L509.088,288.378C507.798,287.733 506.346,287.249 504.733,286.927C503.119,286.604 501.506,286.281 499.893,285.959C498.28,285.636 496.828,284.991 495.537,284.023C494.247,283.055 492.956,282.248 491.666,281.603C491.02,280.312 490.214,279.022 489.246,277.731C488.278,276.441 487.632,274.989 487.31,273.375C486.987,271.762 486.826,270.31 486.826,269.02L486.826,264.18L491.666,254.501C492.956,253.855 494.408,253.049 496.021,252.081C497.634,251.113 499.248,250.468 500.861,250.145C502.474,249.822 504.249,249.661 506.185,249.661L511.992,249.661L515.864,250.629L572.004,249.661L599.106,250.629L599.106,214.815L597.171,207.072C597.816,205.781 598.3,204.652 598.622,203.684C598.945,202.716 599.429,201.587 600.074,200.296C600.72,199.006 601.365,197.876 602.01,196.909C602.656,195.941 603.301,194.811 603.946,193.521C605.237,192.875 606.527,192.069 607.818,191.101C609.108,190.133 610.56,189.488 612.174,189.165C613.787,188.842 615.239,188.681 616.529,188.681L621.369,188.681L631.048,193.521C633.63,197.392 635.404,201.748 636.372,206.588C637.34,211.428 637.824,216.59 637.824,222.075L637.824,253.533L675.573,254.501L694.932,253.533C696.223,254.178 697.836,254.662 699.772,254.985C701.708,255.307 703.644,255.63 705.579,255.953C707.515,256.275 709.29,256.921 710.903,257.888C712.516,258.856 713.968,259.663 715.259,260.308C715.904,261.599 716.711,262.889 717.679,264.18C718.647,265.471 719.292,266.923 719.614,268.536C719.937,270.149 720.098,271.762 720.098,273.375L720.098,278.699L715.259,288.378C713.968,289.024 712.678,289.83 711.387,290.798C710.096,291.766 708.645,292.412 707.031,292.734C705.418,293.057 703.805,293.218 702.192,293.218L696.868,293.218L677.509,291.282L671.702,292.25L637.824,291.282L637.824,304.833L639.76,364.845L667.83,364.845L689.124,363.877C690.415,364.523 692.19,364.845 694.448,364.845C696.707,364.845 698.804,365.007 700.74,365.329C702.676,365.652 704.45,366.297 706.063,367.265C707.677,368.233 709.129,369.04 710.419,369.685C711.064,370.976 711.871,372.266 712.839,373.557C713.807,374.847 714.452,376.299 714.775,377.913C715.097,379.526 715.259,380.978 715.259,382.268L715.259,387.108L710.419,397.755C708.483,399.046 706.709,400.014 705.095,400.659C703.482,401.304 701.708,401.788 699.772,402.111C697.836,402.434 695.9,402.756 693.964,403.079C692.028,403.402 690.092,403.563 688.157,403.563L668.798,402.595L639.76,403.563L639.76,418.082L641.696,464.543C648.149,465.188 654.44,466.479 660.57,468.415C666.701,470.35 672.992,472.286 679.445,474.222C685.898,476.158 692.351,477.771 698.804,479.062C705.257,480.352 711.064,482.934 716.227,486.805C716.872,488.096 717.679,489.386 718.647,490.677C719.614,491.968 720.421,493.42 721.066,495.033C721.712,496.646 722.034,498.259 722.034,499.872L722.034,505.196L717.195,514.875C715.904,515.521 714.613,516.327 713.323,517.295C712.032,518.263 710.58,518.909 708.967,519.231C707.354,519.554 705.741,519.715 704.128,519.715L698.804,519.715C694.287,517.134 689.286,515.521 683.801,514.875C678.316,514.23 673.315,512.94 668.798,511.004C664.281,509.068 659.441,507.455 654.279,506.164C649.116,504.873 643.954,503.583 638.792,502.292C638.147,507.455 637.501,512.778 636.856,518.263C636.211,523.748 634.759,529.072 632.5,534.234C630.242,539.397 627.822,544.236 625.241,548.753C622.66,553.27 619.756,557.787 616.529,562.304L613.625,565.208L608.786,570.048C604.269,573.274 599.268,576.017 593.783,578.275C588.298,580.534 582.974,582.792 577.812,585.051C572.65,587.309 567.326,588.761 561.841,589.407C556.356,590.052 550.387,590.052 543.934,589.407ZM579.748,542.946L582.652,541.978L582.652,540.042C584.587,538.751 586.201,537.299 587.491,535.686C588.782,534.073 589.911,532.298 590.879,530.362C591.847,528.427 592.815,526.491 593.783,524.555C594.751,522.619 595.88,520.683 597.171,518.747L601.042,496.485C595.235,496.485 590.072,496.162 585.555,495.517C581.038,494.871 576.521,494.226 572.004,493.581C567.487,492.936 562.809,492.613 557.969,492.613L542.966,492.613C541.676,493.258 540.062,493.904 538.126,494.549C536.191,495.194 534.416,496.001 532.803,496.969C531.19,497.937 529.738,499.066 528.447,500.356C527.157,501.647 525.866,502.938 524.575,504.228C523.285,506.164 521.994,507.777 520.704,509.068C519.413,510.358 518.445,511.972 517.8,513.908C517.155,515.843 516.671,517.779 516.348,519.715C516.025,521.651 515.864,523.587 515.864,525.523L521.672,537.138C524.898,538.429 527.802,540.526 530.383,543.43C532.964,546.333 535.707,548.269 538.61,549.237C541.514,550.205 544.741,550.85 548.29,551.173C551.839,551.496 555.549,551.657 559.421,551.657L579.748,542.946Z" style="fill:none;fill-rule:nonzero;stroke:rgb(207,107,25);stroke-width:14.49px;" class="naiRBkJe_0"></path>
            <path d="M994.826,580.695C988.373,579.405 982.081,576.985 975.951,573.436C969.821,569.887 964.174,565.853 959.012,561.336C953.205,554.883 949.171,547.624 946.913,539.558C944.654,531.492 943.525,522.78 943.525,513.424C943.525,503.744 945.622,495.033 949.817,487.289C954.011,479.546 959.335,472.125 965.788,465.027C977.403,455.347 990.47,449.056 1004.99,446.152C1019.51,443.248 1034.83,442.442 1050.97,443.732C1058.06,444.377 1065,445.668 1071.78,447.604C1078.55,449.54 1085.49,451.153 1092.59,452.444L1092.59,449.54C1090.65,443.087 1088.07,436.795 1084.84,430.665C1081.62,424.535 1077.75,418.566 1073.23,412.758C1064.84,406.951 1055.64,403.079 1045.64,401.143C1035.64,399.207 1025.48,397.917 1015.15,397.271C1000.31,401.788 985.469,405.66 970.627,408.886C955.786,412.113 941.589,417.275 928.038,424.373L924.166,430.181L921.263,433.085C918.681,435.021 915.939,436.634 913.035,437.925C910.131,439.215 906.744,439.538 902.872,438.893L893.192,434.053C891.257,431.472 889.805,428.729 888.837,425.825C887.869,422.922 887.708,419.856 888.353,416.63C892.87,405.66 898.839,395.335 906.26,385.656C913.68,375.977 921.585,366.62 929.974,357.586C946.106,342.099 961.271,325.805 975.467,308.705C989.663,291.605 1005.47,275.795 1022.9,261.276L1022.9,259.34L989.986,256.437L905.776,256.437L890.289,258.372C887.708,257.727 885.207,256.921 882.787,255.953C880.367,254.985 878.189,253.855 876.254,252.565C874.318,249.984 872.866,247.241 871.898,244.337C870.93,241.434 870.769,238.368 871.414,235.142L876.254,225.463C880.448,222.236 884.965,220.462 889.805,220.139C894.644,219.816 899.645,219.332 904.808,218.687L989.986,218.687C1004.83,220.623 1019.67,221.914 1034.51,222.559C1049.35,223.204 1063.55,226.108 1077.1,231.27C1079.04,233.851 1080.49,236.594 1081.46,239.498C1082.42,242.402 1082.59,245.789 1081.94,249.661L1075.16,263.212C1059.03,278.376 1042.58,293.863 1025.8,309.673C1009.02,325.483 994.503,342.422 982.243,360.49L973.531,368.233L978.371,368.233C986.114,365.007 994.019,362.748 1002.09,361.458C1010.15,360.167 1018.7,359.522 1027.74,359.522C1041.93,361.458 1055.64,364.2 1068.87,367.749C1082.1,371.298 1093.88,378.88 1104.2,390.496C1115.17,404.047 1123,418.888 1127.67,435.021C1132.35,451.153 1133.73,468.576 1131.79,487.289C1129.53,498.905 1125.34,509.632 1119.21,519.473C1113.08,529.314 1105.82,538.751 1097.43,547.785C1083.23,560.046 1067.26,568.273 1049.51,572.468C1031.77,576.662 1013.54,579.405 994.826,580.695ZM1062.58,526.491C1068.39,523.264 1073.39,518.828 1077.58,513.182C1081.78,507.535 1085.49,501.808 1088.72,496.001L1088.72,493.097C1077.75,487.935 1066.13,484.547 1053.87,482.934C1041.61,481.32 1028.7,480.836 1015.15,481.482L990.954,493.097C987.082,496.969 984.501,501.324 983.211,506.164C981.92,511.004 981.275,516.166 981.275,521.651L987.082,537.138L1003.54,542.946C1013.86,541.655 1024.03,539.88 1034.03,537.622C1044.03,535.363 1053.55,531.653 1062.58,526.491Z" style="fill:none;fill-rule:nonzero;stroke:rgb(207,107,25);stroke-width:14.49px;" class="naiRBkJe_1"></path>
            <path d="M1473.32,581.663L1463.64,576.823C1463,575.533 1462.19,574.242 1461.22,572.952C1460.26,571.661 1459.61,570.209 1459.29,568.596C1458.96,566.983 1458.8,565.531 1458.8,564.24L1458.8,559.401L1463.64,549.721L1466.55,548.753C1469.13,543.591 1471.87,538.751 1474.78,534.234C1477.68,529.717 1480.1,524.716 1482.03,519.231C1483.97,513.746 1485.42,508.261 1486.39,502.776C1487.36,497.291 1487.52,491.322 1486.87,484.869C1486.23,482.934 1485.75,480.836 1485.42,478.578C1485.1,476.319 1484.45,474.222 1483.49,472.286C1482.52,470.35 1481.23,468.576 1479.62,466.963C1478,465.349 1476.23,463.575 1474.29,461.639C1470.42,458.413 1466.23,455.831 1461.71,453.896C1457.19,451.96 1452.35,450.83 1447.19,450.508C1442.03,450.185 1436.86,450.024 1431.7,450.024L1416.21,450.024C1409.76,450.024 1403.63,450.508 1397.82,451.476C1392.02,452.444 1386.37,453.734 1380.88,455.347C1375.4,456.961 1369.91,458.413 1364.43,459.703C1358.94,460.994 1353.3,461.639 1347.49,461.639C1346.2,460.994 1345.07,460.51 1344.1,460.187C1343.14,459.864 1342.01,459.542 1340.72,459.219C1339.42,458.897 1338.3,458.413 1337.33,457.767C1336.36,457.122 1335.23,456.477 1333.94,455.831C1333.3,454.541 1332.49,453.089 1331.52,451.476C1330.55,449.862 1329.75,448.249 1329.1,446.636C1328.45,445.023 1328.13,443.248 1328.13,441.312L1328.13,435.505C1329.42,425.18 1330.55,414.371 1331.52,403.079C1332.49,391.786 1333.46,380.816 1334.42,370.169C1335.39,359.522 1336.04,348.713 1336.36,337.743C1336.68,326.773 1337.17,315.803 1337.81,304.833L1299.1,304.833L1268.12,308.705C1266.83,308.06 1265.7,307.576 1264.73,307.253C1263.77,306.931 1262.64,306.608 1261.35,306.285C1260.05,305.963 1258.92,305.479 1257.96,304.833C1256.99,304.188 1255.86,303.543 1254.57,302.898C1253.92,301.607 1253.12,300.316 1252.15,299.026C1251.18,297.735 1250.54,296.283 1250.21,294.67C1249.89,293.057 1249.73,291.605 1249.73,290.314L1249.73,285.475L1254.57,275.795C1260.38,272.569 1266.99,270.633 1274.41,269.988C1281.83,269.342 1289.09,268.536 1296.19,267.568C1303.29,266.6 1310.71,266.277 1318.45,266.6C1326.2,266.923 1333.62,266.761 1340.72,266.116C1342.01,262.244 1342.81,258.211 1343.14,254.017C1343.46,249.822 1343.62,245.467 1343.62,240.95C1343.62,236.433 1343.94,232.077 1344.59,227.882C1345.23,223.688 1346.85,219.978 1349.43,216.751C1350.72,216.106 1352.01,215.299 1353.3,214.331C1354.59,213.363 1356.04,212.718 1357.65,212.395C1359.27,212.073 1360.72,211.912 1362.01,211.912L1366.85,211.912L1376.53,216.751C1378.46,219.332 1379.76,221.914 1380.4,224.495C1381.05,227.076 1381.37,229.98 1381.37,233.206L1381.37,252.565L1380.4,265.148C1390.08,265.148 1399.92,265.309 1409.92,265.632C1419.92,265.955 1429.77,266.277 1439.44,266.6C1449.12,266.923 1458.64,267.245 1468,267.568C1477.36,267.89 1486.23,270.31 1494.62,274.827C1495.26,276.118 1496.07,277.409 1497.04,278.699C1498.01,279.99 1498.65,281.442 1498.97,283.055C1499.3,284.668 1499.46,286.12 1499.46,287.411L1499.46,292.25L1494.62,301.93C1492.68,303.22 1490.91,304.349 1489.29,305.317C1487.68,306.285 1485.91,306.769 1483.97,306.769L1471.39,306.769C1463.64,305.479 1455.9,304.672 1448.16,304.349C1440.41,304.027 1432.35,303.704 1423.96,303.381C1415.57,303.059 1407.5,302.898 1399.76,302.898L1375.56,302.898C1374.92,312.577 1374.59,322.256 1374.59,331.936C1374.59,341.615 1374.11,351.294 1373.14,360.974C1372.17,370.653 1371.21,380.332 1370.24,390.012C1369.27,399.691 1368.79,409.37 1368.79,419.05L1370.72,419.05C1377.17,417.114 1383.95,415.662 1391.05,414.694C1398.15,413.726 1405.57,413.081 1413.31,412.758C1421.05,412.436 1428.64,412.274 1436.06,412.274L1458.8,412.274C1463.32,414.21 1468,415.985 1472.84,417.598C1477.68,419.211 1482.2,421.147 1486.39,423.406C1490.59,425.664 1494.62,428.729 1498.49,432.601C1502.36,436.473 1506.23,440.022 1510.11,443.248C1513.33,447.765 1515.91,452.282 1517.85,456.799C1519.78,461.316 1521.24,466.317 1522.2,471.802C1523.17,477.287 1523.98,482.611 1524.62,487.773C1525.27,492.936 1525.27,498.421 1524.62,504.228C1523.33,510.681 1521.88,517.134 1520.27,523.587C1518.65,530.04 1516.56,536.17 1513.98,541.978C1511.39,547.785 1508.17,553.593 1504.3,559.401C1500.42,565.208 1496.55,570.693 1492.68,575.855C1491.39,576.501 1489.94,577.307 1488.33,578.275C1486.71,579.243 1485.1,580.05 1483.49,580.695C1481.87,581.34 1480.26,581.663 1478.65,581.663L1473.32,581.663Z" style="fill:none;fill-rule:nonzero;stroke:rgb(207,107,25);stroke-width:14.49px;" class="naiRBkJe_2"></path>
            <path d="M1923.34,572.952C1918.83,571.661 1914.47,570.532 1910.28,569.564C1906.08,568.596 1902.21,566.983 1898.66,564.724C1895.11,562.466 1891.56,559.723 1888.01,556.497C1884.47,553.27 1881.08,550.044 1877.85,546.817C1872.04,539.074 1867.37,531.008 1863.82,522.619C1860.27,514.23 1857.85,505.196 1856.56,495.517C1855.27,485.837 1853.17,476.481 1850.26,467.447C1847.36,458.413 1842.68,450.346 1836.23,443.248C1833,440.667 1829.62,438.247 1826.07,435.989C1822.52,433.73 1818.97,431.956 1815.42,430.665C1811.87,429.374 1808.16,428.407 1804.29,427.761C1800.42,427.116 1796.22,427.116 1791.7,427.761C1787.83,429.052 1783.96,429.697 1780.09,429.697C1776.22,429.697 1772.67,430.665 1769.44,432.601C1766.22,434.537 1762.99,436.634 1759.76,438.893C1756.54,441.151 1753.31,443.571 1750.08,446.152C1746.86,455.831 1743.63,465.672 1740.4,475.674C1737.18,485.676 1733.63,495.355 1729.76,504.712C1725.88,514.069 1722.66,523.91 1720.08,534.234C1717.5,544.559 1713.95,554.238 1709.43,563.272C1708.14,563.918 1706.85,564.724 1705.56,565.692C1704.27,566.66 1702.82,567.305 1701.2,567.628C1699.59,567.951 1697.98,568.112 1696.36,568.112L1691.04,568.112L1681.36,563.272C1680.71,561.982 1679.91,560.691 1678.94,559.401C1677.97,558.11 1677.33,556.658 1677,555.045C1676.68,553.432 1676.52,551.98 1676.52,550.689L1676.52,545.849C1684.91,520.038 1693.46,494.387 1702.17,468.899C1710.88,443.41 1719.27,417.598 1727.34,391.464C1735.4,365.329 1744.44,339.679 1754.44,314.513C1764.44,289.346 1773.96,264.18 1782.99,239.014C1784.28,238.368 1785.57,237.562 1786.87,236.594C1788.15,235.626 1789.61,234.981 1791.22,234.658C1792.83,234.335 1794.29,234.174 1795.58,234.174L1800.42,234.174L1810.1,239.014C1810.74,240.304 1811.55,241.756 1812.52,243.369C1813.48,244.983 1814.13,246.757 1814.45,248.693C1814.77,250.629 1814.93,252.565 1814.93,254.501L1814.93,260.308C1812.35,271.924 1808.8,283.055 1804.29,293.702C1799.77,304.349 1795.25,314.997 1790.74,325.644C1786.22,336.291 1782.19,346.939 1778.64,357.586C1775.09,368.233 1771.7,379.687 1768.47,391.948L1782.99,391.948C1784.93,391.302 1787.03,390.657 1789.28,390.012C1791.54,389.366 1793.8,389.044 1796.06,389.044L1809.13,389.044C1813,390.98 1817.19,392.27 1821.71,392.916C1826.23,393.561 1830.26,394.851 1833.81,396.787C1837.36,398.723 1840.91,400.82 1844.46,403.079C1848.01,405.337 1851.39,407.435 1854.62,409.37L1854.62,411.306L1863.33,416.146L1863.33,418.082L1865.27,418.082C1871.72,426.471 1877.2,435.021 1881.72,443.732C1886.24,452.444 1889.14,461.962 1890.43,472.286C1891.72,482.611 1893.82,492.613 1896.73,502.292C1899.63,511.972 1904.95,520.683 1912.7,528.427C1914.63,529.717 1916.57,530.846 1918.5,531.814C1920.44,532.782 1922.38,533.589 1924.31,534.234C1926.25,534.879 1928.18,535.202 1930.12,535.202L1936.89,535.202C1938.18,533.912 1939.8,533.266 1941.73,533.266C1943.67,533.266 1945.44,532.782 1947.06,531.814C1948.67,530.846 1950.28,529.878 1951.9,528.911C1953.51,527.943 1954.96,526.813 1956.25,525.523L1967.87,505.196C1969.16,504.551 1970.45,503.744 1971.74,502.776C1973.03,501.808 1974.48,501.002 1976.1,500.356C1977.71,499.711 1979.32,499.389 1980.94,499.389L1986.26,499.389L1995.94,504.228C1996.58,505.519 1997.39,506.809 1998.36,508.1C1999.33,509.391 1999.97,510.842 2000.29,512.456C2000.62,514.069 2000.78,515.682 2000.78,517.295L2000.78,522.619C1999.49,525.2 1998.2,527.943 1996.91,530.846C1995.62,533.75 1994.16,536.493 1992.55,539.074C1990.94,541.655 1989.16,544.236 1987.23,546.817C1985.29,549.399 1983.68,551.98 1982.39,554.561L1980.45,554.561L1980.45,556.497C1975.93,559.078 1971.58,561.498 1967.38,563.756C1963.19,566.015 1958.67,567.951 1953.83,569.564C1948.99,571.177 1944.15,572.306 1939.31,572.952C1934.48,573.597 1929.15,573.597 1923.34,572.952Z" style="fill:none;fill-rule:nonzero;stroke:rgb(207,107,25);stroke-width:14.49px;" class="naiRBkJe_3"></path>
            <path d="M2160.26,582.631C2158.97,581.986 2157.68,581.502 2156.39,581.179C2155.1,580.856 2153.81,580.534 2152.52,580.211C2151.23,579.889 2150.1,579.243 2149.13,578.275C2148.16,577.307 2147.03,576.501 2145.74,575.855C2144.45,573.92 2143.16,572.145 2141.87,570.532C2140.58,568.919 2139.78,566.983 2139.45,564.724C2139.13,562.466 2138.81,560.368 2138.49,558.433C2138.16,556.497 2138,554.238 2138,551.657C2138.65,550.366 2139.13,549.237 2139.45,548.269C2139.78,547.301 2140.1,546.172 2140.42,544.881C2140.74,543.591 2141.23,542.462 2141.87,541.494C2142.52,540.526 2143.16,539.397 2143.81,538.106C2145.74,536.815 2147.68,535.525 2149.62,534.234C2151.55,532.944 2153.65,532.137 2155.91,531.814C2158.17,531.492 2160.59,531.33 2163.17,531.33L2170.91,531.33L2183.49,537.138L2183.49,539.074L2185.43,539.074C2186.72,541.01 2187.85,542.784 2188.82,544.398C2189.78,546.011 2190.59,547.785 2191.24,549.721C2191.88,551.657 2192.2,553.916 2192.2,556.497L2192.2,563.272L2187.37,572.952L2185.43,572.952L2185.43,574.888C2183.49,576.178 2181.72,577.307 2180.11,578.275C2178.49,579.243 2176.56,580.05 2174.3,580.695C2172.04,581.34 2169.94,581.824 2168.01,582.147C2166.07,582.47 2163.49,582.631 2160.26,582.631ZM2158.33,484.869L2148.65,480.03C2148,478.739 2147.2,477.61 2146.23,476.642C2145.26,475.674 2144.78,474.383 2144.78,472.77C2144.78,471.157 2144.45,469.705 2143.81,468.415C2143.16,467.124 2142.84,465.833 2142.84,464.543L2143.81,429.697L2142.84,420.986C2143.49,418.405 2143.97,415.339 2144.29,411.79C2144.62,408.241 2144.78,404.853 2144.78,401.627L2144.78,391.948C2144.78,388.721 2145.1,385.817 2145.74,383.236L2145.74,237.078L2144.78,233.206C2145.42,231.916 2145.91,230.786 2146.23,229.818C2146.55,228.85 2146.87,227.721 2147.2,226.431C2147.52,225.14 2148,224.011 2148.65,223.043C2149.29,222.075 2149.94,220.946 2150.58,219.655C2151.87,219.01 2153.16,218.203 2154.46,217.235C2155.75,216.267 2157.2,215.622 2158.81,215.299C2160.43,214.977 2162.04,214.815 2163.65,214.815L2168.97,214.815L2178.65,219.655C2179.3,220.946 2179.95,222.075 2180.59,223.043C2181.24,224.011 2181.72,225.14 2182.04,226.431C2182.36,227.721 2182.69,228.85 2183.01,229.818C2183.33,230.786 2183.82,231.916 2184.46,233.206L2184.46,386.14L2181.56,425.825L2182.53,467.447L2176.72,480.03C2175.43,480.675 2174.14,481.482 2172.85,482.45C2171.56,483.418 2170.1,484.063 2168.49,484.385C2166.88,484.708 2165.26,484.869 2163.65,484.869L2158.33,484.869Z" style="fill:none;fill-rule:nonzero;stroke:rgb(207,107,25);stroke-width:14.49px;" class="naiRBkJe_4"></path>
            <path d="M2296.05,582.631C2294.76,581.986 2293.47,581.502 2292.18,581.179C2290.89,580.856 2289.6,580.534 2288.31,580.211C2287.02,579.889 2285.89,579.243 2284.92,578.275C2283.95,577.307 2282.83,576.501 2281.53,575.855C2280.24,573.92 2278.95,572.145 2277.66,570.532C2276.37,568.919 2275.57,566.983 2275.24,564.724C2274.92,562.466 2274.6,560.368 2274.27,558.433C2273.95,556.497 2273.79,554.238 2273.79,551.657C2274.44,550.366 2274.92,549.237 2275.24,548.269C2275.57,547.301 2275.89,546.172 2276.21,544.881C2276.53,543.591 2277.02,542.462 2277.66,541.494C2278.31,540.526 2278.95,539.397 2279.6,538.106C2281.53,536.815 2283.47,535.525 2285.41,534.234C2287.34,532.944 2289.44,532.137 2291.7,531.814C2293.96,531.492 2296.38,531.33 2298.96,531.33L2306.7,531.33L2319.28,537.138L2319.28,539.074L2321.22,539.074C2322.51,541.01 2323.64,542.784 2324.61,544.398C2325.58,546.011 2326.38,547.785 2327.03,549.721C2327.67,551.657 2327.99,553.916 2327.99,556.497L2327.99,563.272L2323.16,572.952L2321.22,572.952L2321.22,574.888C2319.28,576.178 2317.51,577.307 2315.9,578.275C2314.28,579.243 2312.35,580.05 2310.09,580.695C2307.83,581.34 2305.73,581.824 2303.8,582.147C2301.86,582.47 2299.28,582.631 2296.05,582.631ZM2294.12,484.869L2284.44,480.03C2283.79,478.739 2282.99,477.61 2282.02,476.642C2281.05,475.674 2280.57,474.383 2280.57,472.77C2280.57,471.157 2280.24,469.705 2279.6,468.415C2278.95,467.124 2278.63,465.833 2278.63,464.543L2279.6,429.697L2278.63,420.986C2279.28,418.405 2279.76,415.339 2280.08,411.79C2280.41,408.241 2280.57,404.853 2280.57,401.627L2280.57,391.948C2280.57,388.721 2280.89,385.817 2281.53,383.236L2281.53,237.078L2280.57,233.206C2281.21,231.916 2281.7,230.786 2282.02,229.818C2282.34,228.85 2282.66,227.721 2282.99,226.431C2283.31,225.14 2283.79,224.011 2284.44,223.043C2285.08,222.075 2285.73,220.946 2286.37,219.655C2287.66,219.01 2288.95,218.203 2290.24,217.235C2291.54,216.267 2292.99,215.622 2294.6,215.299C2296.21,214.977 2297.83,214.815 2299.44,214.815L2304.76,214.815L2314.44,219.655C2315.09,220.946 2315.73,222.075 2316.38,223.043C2317.03,224.011 2317.51,225.14 2317.83,226.431C2318.15,227.721 2318.48,228.85 2318.8,229.818C2319.12,230.786 2319.61,231.916 2320.25,233.206L2320.25,386.14L2317.35,425.825L2318.32,467.447L2312.51,480.03C2311.22,480.675 2309.93,481.482 2308.64,482.45C2307.35,483.418 2305.89,484.063 2304.28,484.385C2302.67,484.708 2301.05,484.869 2299.44,484.869L2294.12,484.869Z" style="fill:none;fill-rule:nonzero;stroke:rgb(207,107,25);stroke-width:14.49px;" class="naiRBkJe_5"></path>
        </g>
        <g transform="matrix(1.5,0,0,1.5,87.67,105.065)">
            <path d="M140.622,162.503C140.622,162.503 320.587,255.829 500.596,162.503" style="fill:none;stroke:rgb(207,107,25);stroke-width:11px;stroke-linecap:round;stroke-miterlimit:1.5;" class="naiRBkJe_6"></path>
        </g>
        <g transform="matrix(1.5,0,0,1.5,87.67,105.065)">
            <path d="M236.496,162.503C236.496,162.503 319.513,207.855 406.321,162.503" style="fill:none;stroke:rgb(207,107,25);stroke-width:11px;stroke-linecap:round;stroke-miterlimit:1.5;" class="naiRBkJe_7"></path>
        </g>
        <g transform="matrix(1,0,0,1,583.736,664.37)">
            <path d="M-211.254,13.222L-215.261,11.219C-215.528,10.685 -215.862,10.15 -216.263,9.616C-216.663,9.082 -216.93,8.481 -217.064,7.813C-217.198,7.145 -217.331,6.544 -217.465,6.01C-217.598,5.476 -217.665,4.808 -217.665,4.007C-216.864,1.068 -215.929,-1.736 -214.86,-4.407C-213.792,-7.079 -212.99,-9.883 -212.456,-12.822C-211.922,-15.76 -211.121,-18.565 -210.052,-21.236C-208.984,-23.907 -208.182,-26.712 -207.648,-29.65C-208.717,-30.985 -209.852,-32.388 -211.054,-33.857C-212.256,-35.326 -213.391,-36.795 -214.46,-38.264C-215.528,-39.733 -216.53,-41.203 -217.465,-42.672C-218.4,-44.141 -218.733,-45.944 -218.466,-48.081L-216.463,-52.088C-215.929,-52.355 -215.394,-52.689 -214.86,-53.089C-214.326,-53.49 -213.725,-53.757 -213.057,-53.891C-212.389,-54.024 -211.788,-54.091 -211.254,-54.091L-209.251,-54.091L-205.244,-52.088L-202.84,-48.481L-202.039,-48.481C-201.504,-50.886 -200.837,-53.29 -200.035,-55.694C-199.234,-58.098 -198.433,-60.502 -197.631,-62.906C-196.83,-65.31 -196.029,-67.781 -195.227,-70.318C-194.426,-72.856 -193.892,-75.46 -193.625,-78.131C-194.693,-78.398 -195.828,-78.732 -197.03,-79.133C-198.232,-79.534 -199.434,-79.734 -200.636,-79.734C-201.838,-79.734 -202.974,-79.934 -204.042,-80.335C-205.111,-80.736 -206.179,-81.337 -207.247,-82.138C-207.515,-82.672 -207.848,-83.14 -208.249,-83.54C-208.65,-83.941 -208.85,-84.475 -208.85,-85.143C-208.85,-85.811 -208.984,-86.412 -209.251,-86.946C-209.518,-87.48 -209.652,-88.015 -209.652,-88.549C-208.049,-92.556 -206.713,-96.629 -205.645,-100.769L-199.234,-125.611C-198.166,-129.751 -196.83,-133.825 -195.227,-137.832C-196.83,-138.099 -198.433,-138.232 -200.035,-138.232L-205.044,-138.232C-206.78,-138.232 -208.316,-138.499 -209.652,-139.034C-210.987,-139.568 -212.323,-140.369 -213.658,-141.438C-213.925,-141.972 -214.259,-142.506 -214.66,-143.04C-215.061,-143.575 -215.328,-144.176 -215.461,-144.843C-215.595,-145.511 -215.662,-146.112 -215.662,-146.646L-215.662,-148.65L-213.658,-152.657C-213.124,-152.924 -212.59,-153.258 -212.056,-153.658C-211.521,-154.059 -210.92,-154.326 -210.253,-154.46C-209.585,-154.593 -208.917,-154.66 -208.249,-154.66L-206.045,-154.66C-203.909,-154.126 -201.772,-153.859 -199.635,-153.859C-197.498,-153.859 -195.361,-153.658 -193.224,-153.258C-191.087,-152.857 -188.816,-152.723 -186.412,-152.857C-184.008,-152.99 -182.005,-152.256 -180.402,-150.653L-179.2,-149.451C-178.933,-148.65 -178.533,-147.982 -177.998,-147.448C-177.464,-146.914 -177.13,-146.246 -176.997,-145.444C-176.863,-144.643 -176.796,-143.842 -176.796,-143.04L-176.796,-140.636C-178.399,-136.897 -179.868,-133.157 -181.204,-129.417C-182.539,-125.678 -183.675,-121.805 -184.609,-117.798C-185.544,-113.791 -186.68,-109.851 -188.015,-105.978C-189.351,-102.105 -190.286,-98.165 -190.82,-94.158C-189.751,-93.357 -188.616,-92.756 -187.414,-92.355C-186.212,-91.955 -185.077,-91.621 -184.008,-91.354C-182.94,-91.086 -181.805,-90.819 -180.603,-90.552C-179.401,-90.285 -178.399,-89.751 -177.598,-88.949C-177.331,-88.415 -176.93,-87.814 -176.396,-87.146C-175.861,-86.479 -175.527,-85.811 -175.394,-85.143C-175.26,-84.475 -175.194,-83.741 -175.194,-82.939L-175.194,-80.535C-176.796,-76.796 -178.132,-72.856 -179.2,-68.715C-180.269,-64.575 -181.471,-60.568 -182.806,-56.695C-184.142,-52.822 -185.411,-48.949 -186.613,-45.076C-187.815,-41.203 -188.95,-37.263 -190.019,-33.256L-184.81,-28.047C-184.008,-27.246 -183.14,-26.578 -182.205,-26.044C-181.27,-25.51 -180.269,-24.975 -179.2,-24.441C-173.858,-21.236 -168.182,-18.765 -162.172,-17.029C-156.162,-15.292 -150.285,-13.155 -144.542,-10.618C-138.799,-8.08 -132.856,-6.478 -126.712,-5.81C-120.568,-5.142 -114.558,-3.873 -108.682,-2.003C-108.415,-1.469 -108.081,-0.935 -107.68,-0.401C-107.279,0.134 -107.012,0.735 -106.879,1.402C-106.745,2.07 -106.678,2.671 -106.678,3.205L-106.678,5.209L-108.682,9.215C-109.216,9.483 -109.817,9.816 -110.485,10.217C-111.153,10.618 -111.82,10.885 -112.488,11.019C-113.156,11.152 -113.824,11.219 -114.492,11.219L-116.695,11.219C-123.64,10.685 -130.452,9.616 -137.13,8.013C-143.808,6.411 -150.419,4.341 -156.963,1.803C-163.507,-0.735 -170.052,-3.205 -176.596,-5.609C-183.14,-8.013 -189.351,-11.219 -195.227,-15.226C-196.296,-13.089 -196.964,-10.885 -197.231,-8.614C-197.498,-6.344 -198.099,-4.074 -199.034,-1.803C-199.969,0.467 -200.77,2.671 -201.438,4.808C-202.105,6.945 -202.974,9.082 -204.042,11.219C-204.576,11.486 -205.111,11.82 -205.645,12.221C-206.179,12.621 -206.78,12.888 -207.448,13.022C-208.116,13.155 -208.717,13.222 -209.251,13.222L-211.254,13.222ZM-230.887,12.421C-231.956,11.62 -233.224,11.085 -234.694,10.818C-236.163,10.551 -237.632,10.351 -239.101,10.217C-240.57,10.084 -241.906,9.75 -243.108,9.215C-244.31,8.681 -245.712,8.548 -247.315,8.815C-248.917,9.082 -250.587,9.416 -252.323,9.816C-254.059,10.217 -255.862,10.418 -257.732,10.418C-259.602,10.418 -261.405,10.551 -263.141,10.818C-264.878,11.085 -266.681,11.219 -268.55,11.219L-272.557,9.215C-272.824,8.681 -273.158,8.147 -273.559,7.613C-273.96,7.079 -274.227,6.478 -274.36,5.81C-274.494,5.142 -274.627,4.474 -274.761,3.806C-274.894,3.139 -274.961,2.404 -274.961,1.603C-274.694,-2.671 -274.36,-6.878 -273.96,-11.019C-273.559,-15.159 -273.158,-19.232 -272.758,-23.239C-272.357,-27.246 -271.956,-31.319 -271.556,-35.46C-271.155,-39.6 -270.153,-43.54 -268.55,-47.279C-267.749,-47.814 -266.881,-48.281 -265.946,-48.682C-265.011,-49.082 -264.01,-49.35 -262.941,-49.483C-261.873,-49.617 -260.804,-49.683 -259.736,-49.683L-256.53,-49.683C-253.859,-49.683 -251.255,-49.416 -248.717,-48.882C-246.18,-48.348 -243.642,-47.814 -241.104,-47.279C-238.567,-46.745 -235.962,-46.411 -233.291,-46.278C-230.62,-46.144 -228.216,-45.276 -226.079,-43.673C-225.812,-43.139 -225.478,-42.538 -225.077,-41.87C-224.677,-41.203 -224.41,-40.535 -224.276,-39.867C-224.143,-39.199 -224.076,-38.465 -224.076,-37.663L-224.076,-35.259L-224.476,-27.646C-223.942,-24.975 -223.542,-22.237 -223.274,-19.433C-223.007,-16.628 -222.807,-13.756 -222.673,-10.818C-222.54,-7.88 -222.273,-5.008 -221.872,-2.204C-221.471,0.601 -221.405,3.473 -221.672,6.411L-223.675,10.418C-224.209,10.685 -224.744,11.019 -225.278,11.419C-225.812,11.82 -226.413,12.087 -227.081,12.221C-227.749,12.354 -228.35,12.421 -228.884,12.421L-230.887,12.421ZM-238.099,-6.01L-238.099,-6.811L-240.503,-31.253L-256.13,-33.657L-258.534,-5.209L-256.53,-5.209C-255.462,-5.743 -254.327,-6.01 -253.125,-6.01C-251.923,-6.01 -250.721,-6.144 -249.519,-6.411C-248.316,-6.678 -247.114,-6.811 -245.912,-6.811L-242.106,-6.811L-238.099,-6.01ZM-124.709,-24.04C-127.38,-24.842 -130.185,-25.309 -133.123,-25.443C-136.061,-25.576 -138.933,-25.71 -141.737,-25.843C-144.542,-25.977 -147.414,-26.111 -150.352,-26.244C-153.29,-26.378 -156.228,-26.444 -159.167,-26.444C-159.968,-26.177 -160.703,-25.91 -161.37,-25.643C-162.038,-25.376 -162.773,-25.176 -163.574,-25.042C-164.375,-24.909 -165.244,-24.775 -166.178,-24.641C-167.113,-24.508 -167.981,-24.441 -168.783,-24.441C-169.317,-24.708 -169.785,-24.909 -170.185,-25.042C-170.586,-25.176 -171.053,-25.309 -171.588,-25.443C-172.122,-25.576 -172.589,-25.777 -172.99,-26.044C-173.391,-26.311 -173.858,-26.578 -174.392,-26.845C-174.659,-27.379 -174.993,-27.914 -175.394,-28.448C-175.795,-28.982 -176.062,-29.583 -176.195,-30.251C-176.329,-30.919 -176.396,-31.52 -176.396,-32.054L-176.396,-34.057L-174.392,-38.064L-169.584,-40.067L-169.584,-42.872L-169.985,-50.084C-169.718,-52.755 -169.584,-55.426 -169.584,-58.098C-169.584,-60.769 -169.517,-63.44 -169.384,-66.111C-169.25,-68.782 -169.184,-71.52 -169.184,-74.325C-169.184,-77.13 -168.382,-79.6 -166.779,-81.737C-166.245,-82.004 -165.711,-82.338 -165.177,-82.739C-164.643,-83.14 -164.042,-83.407 -163.374,-83.54C-162.706,-83.674 -162.105,-83.741 -161.571,-83.741L-159.567,-83.741L-155.561,-81.737C-155.026,-80.936 -154.559,-80.068 -154.158,-79.133C-153.758,-78.198 -153.557,-77.13 -153.557,-75.928L-153.557,-68.916L-154.359,-44.074L-153.958,-42.071L-152.355,-42.071L-151.153,-108.182L-151.554,-130.619L-152.756,-130.619L-163.975,-129.417C-164.509,-129.685 -165.11,-129.885 -165.778,-130.018C-166.446,-130.152 -167.113,-130.286 -167.781,-130.419C-168.449,-130.553 -169.05,-130.82 -169.584,-131.221C-170.118,-131.621 -170.653,-131.955 -171.187,-132.222C-171.454,-132.756 -171.788,-133.291 -172.189,-133.825C-172.589,-134.359 -172.856,-134.96 -172.99,-135.628C-173.123,-136.296 -173.19,-136.897 -173.19,-137.431L-173.19,-139.434L-171.187,-143.441C-167.18,-144.777 -162.906,-145.578 -158.365,-145.845C-153.824,-146.112 -149.283,-146.379 -144.742,-146.646C-140.201,-146.914 -135.594,-146.98 -130.919,-146.847C-126.245,-146.713 -121.77,-147.047 -117.497,-147.848L-113.49,-145.845C-113.223,-145.311 -112.889,-144.777 -112.488,-144.242C-112.088,-143.708 -111.82,-143.107 -111.687,-142.439C-111.553,-141.772 -111.487,-141.104 -111.487,-140.436L-111.487,-138.232L-113.49,-134.226C-115.093,-133.157 -116.829,-132.489 -118.699,-132.222C-120.568,-131.955 -122.438,-131.688 -124.308,-131.421C-126.178,-131.154 -128.114,-131.02 -130.118,-131.02L-135.928,-131.02L-135.928,-108.582L-135.527,-94.158L-129.317,-94.158C-127.313,-94.158 -125.31,-93.958 -123.306,-93.557C-121.303,-93.157 -119.3,-93.023 -117.296,-93.157C-115.293,-93.29 -113.49,-92.689 -111.887,-91.354C-111.62,-90.819 -111.286,-90.285 -110.886,-89.751C-110.485,-89.217 -110.218,-88.616 -110.084,-87.948C-109.951,-87.28 -109.884,-86.679 -109.884,-86.145L-109.884,-84.141L-111.887,-80.135C-112.689,-79.6 -113.623,-79.133 -114.692,-78.732C-115.76,-78.332 -116.762,-78.065 -117.697,-77.931C-118.632,-77.797 -119.7,-77.731 -120.902,-77.731L-124.308,-77.731C-125.109,-77.998 -125.844,-78.198 -126.512,-78.332C-127.18,-78.465 -127.981,-78.532 -128.916,-78.532L-133.924,-78.532L-135.527,-78.131L-136.729,-41.269C-135.126,-41.002 -133.39,-40.869 -131.52,-40.869C-129.65,-40.869 -127.847,-40.735 -126.111,-40.468C-124.375,-40.201 -122.639,-40.001 -120.902,-39.867C-119.166,-39.733 -117.63,-39.132 -116.295,-38.064C-116.028,-37.53 -115.694,-36.996 -115.293,-36.461C-114.892,-35.927 -114.625,-35.326 -114.492,-34.658C-114.358,-33.99 -114.291,-33.323 -114.291,-32.655L-114.291,-30.451L-116.295,-26.444C-116.829,-26.177 -117.43,-25.843 -118.098,-25.443C-118.765,-25.042 -119.5,-24.775 -120.301,-24.641C-121.103,-24.508 -121.837,-24.374 -122.505,-24.241C-123.173,-24.107 -123.907,-24.04 -124.709,-24.04ZM-238.099,-57.296C-239.702,-57.563 -241.171,-57.897 -242.507,-58.298C-243.842,-58.699 -245.311,-58.966 -246.914,-59.099C-248.517,-59.233 -250.12,-59.3 -251.722,-59.3L-256.53,-59.3L-265.746,-58.098L-269.753,-60.101C-270.02,-60.635 -270.354,-61.169 -270.754,-61.704C-271.155,-62.238 -271.422,-62.839 -271.556,-63.507C-271.689,-64.175 -271.756,-64.776 -271.756,-65.31L-271.756,-67.313L-269.753,-71.32C-268.15,-73.19 -266.213,-74.191 -263.943,-74.325C-261.672,-74.458 -259.469,-74.659 -257.332,-74.926C-255.195,-75.193 -252.924,-75.327 -250.52,-75.327L-243.709,-75.327C-242.373,-74.792 -241.038,-74.258 -239.702,-73.724C-238.366,-73.19 -236.964,-72.923 -235.495,-72.923C-234.026,-72.923 -232.557,-72.856 -231.088,-72.722C-229.618,-72.589 -228.35,-71.988 -227.281,-70.919C-227.014,-70.385 -226.68,-69.851 -226.279,-69.316C-225.879,-68.782 -225.612,-68.181 -225.478,-67.513C-225.345,-66.846 -225.278,-66.178 -225.278,-65.51L-225.278,-63.306L-227.281,-59.3C-228.082,-58.765 -228.884,-58.298 -229.685,-57.897C-230.487,-57.497 -231.355,-57.296 -232.29,-57.296L-238.099,-57.296ZM-233.291,-81.737C-235.962,-82.272 -238.767,-82.672 -241.705,-82.939C-244.644,-83.206 -247.582,-83.607 -250.52,-84.141C-253.458,-84.676 -256.464,-84.876 -259.535,-84.742C-262.607,-84.609 -265.345,-85.343 -267.749,-86.946C-268.016,-87.48 -268.35,-87.948 -268.751,-88.348C-269.151,-88.749 -269.352,-89.283 -269.352,-89.951C-269.352,-90.619 -269.485,-91.22 -269.753,-91.754C-270.02,-92.288 -270.153,-92.823 -270.153,-93.357C-269.886,-93.891 -269.686,-94.359 -269.552,-94.759C-269.419,-95.16 -269.285,-95.627 -269.151,-96.162C-269.018,-96.696 -268.818,-97.163 -268.55,-97.564C-268.283,-97.965 -268.016,-98.432 -267.749,-98.966C-267.215,-99.233 -266.614,-99.567 -265.946,-99.968C-265.278,-100.369 -264.611,-100.636 -263.943,-100.769C-263.275,-100.903 -262.607,-100.97 -261.939,-100.97L-259.736,-100.97C-257.065,-100.435 -254.26,-100.102 -251.322,-99.968C-248.383,-99.834 -245.512,-99.501 -242.707,-98.966C-239.902,-98.432 -237.031,-98.232 -234.093,-98.365C-231.154,-98.499 -228.483,-97.764 -226.079,-96.162C-225.812,-95.627 -225.478,-95.093 -225.077,-94.559C-224.677,-94.025 -224.41,-93.424 -224.276,-92.756C-224.143,-92.088 -224.076,-91.487 -224.076,-90.953L-224.076,-88.949L-226.88,-84.141C-227.415,-83.874 -227.882,-83.54 -228.283,-83.14C-228.683,-82.739 -229.218,-82.472 -229.886,-82.338C-230.553,-82.205 -231.154,-82.138 -231.689,-82.138C-232.223,-82.138 -232.757,-82.004 -233.291,-81.737ZM-222.473,-108.582C-225.946,-109.117 -229.418,-109.517 -232.891,-109.784C-236.363,-110.052 -239.836,-110.252 -243.308,-110.385C-246.781,-110.519 -250.186,-110.786 -253.525,-111.187C-256.864,-111.588 -260.403,-111.788 -264.143,-111.788L-270.554,-110.987L-274.561,-112.99C-274.828,-113.524 -275.162,-114.058 -275.562,-114.593C-275.963,-115.127 -276.23,-115.728 -276.364,-116.396C-276.497,-117.063 -276.564,-117.664 -276.564,-118.199L-276.564,-120.202L-274.16,-124.609C-273.091,-125.678 -271.756,-126.346 -270.153,-126.613C-268.55,-126.88 -266.948,-127.08 -265.345,-127.214C-263.742,-127.347 -262.14,-127.414 -260.537,-127.414L-255.729,-127.414C-252.524,-126.88 -249.185,-126.479 -245.712,-126.212C-242.24,-125.945 -238.834,-125.678 -235.495,-125.411C-232.156,-125.144 -228.75,-124.943 -225.278,-124.81C-221.805,-124.676 -218.6,-123.942 -215.662,-122.606C-215.394,-122.072 -215.061,-121.538 -214.66,-121.003C-214.259,-120.469 -213.925,-119.868 -213.658,-119.2C-213.391,-118.533 -213.258,-117.865 -213.258,-117.197L-213.258,-114.993L-215.261,-110.987C-215.795,-110.719 -216.329,-110.385 -216.864,-109.985C-217.398,-109.584 -217.999,-109.317 -218.667,-109.183C-219.334,-109.05 -219.935,-108.916 -220.47,-108.783C-221.004,-108.649 -221.672,-108.582 -222.473,-108.582ZM-241.305,-131.421L-246.113,-134.226C-247.448,-136.362 -248.851,-138.433 -250.32,-140.436C-251.789,-142.439 -253.125,-144.576 -254.327,-146.847C-255.529,-149.117 -256.931,-151.254 -258.534,-153.258C-260.136,-155.261 -260.804,-157.598 -260.537,-160.269L-258.534,-164.276C-257.999,-164.543 -257.465,-164.877 -256.931,-165.278C-256.397,-165.678 -255.796,-165.946 -255.128,-166.079C-254.46,-166.213 -253.859,-166.279 -253.325,-166.279L-251.322,-166.279L-247.315,-164.276L-245.712,-162.673C-244.377,-160.536 -243.041,-158.466 -241.705,-156.463C-240.37,-154.46 -239.168,-152.389 -238.099,-150.252C-237.031,-148.116 -235.695,-146.112 -234.093,-144.242C-232.49,-142.373 -231.822,-140.102 -232.089,-137.431L-234.093,-133.424C-234.627,-133.157 -235.161,-132.823 -235.695,-132.423C-236.23,-132.022 -236.831,-131.755 -237.498,-131.621C-238.166,-131.488 -238.767,-131.421 -239.301,-131.421L-241.305,-131.421Z" style="fill:none;fill-rule:nonzero;stroke:rgb(236,39,39);stroke-width:7.5px;" class="naiRBkJe_8"></path>
            <path d="M-29.666,5.609C-32.604,5.342 -35.609,5.209 -38.681,5.209C-41.753,5.209 -44.825,5.142 -47.896,5.008C-50.968,4.875 -54.04,4.808 -57.112,4.808C-60.184,4.808 -62.922,4.007 -65.326,2.404C-65.593,1.87 -65.927,1.336 -66.327,0.801C-66.728,0.267 -66.995,-0.334 -67.129,-1.002C-67.262,-1.669 -67.329,-2.27 -67.329,-2.805L-67.329,-4.808L-65.326,-8.815C-64.257,-9.883 -63.055,-10.484 -61.72,-10.618C-60.384,-10.751 -58.915,-10.818 -57.312,-10.818L-48.497,-10.818L-25.659,-10.017C-23.522,-10.551 -21.252,-10.885 -18.848,-11.019C-16.444,-11.152 -14.04,-11.219 -11.636,-11.219C-9.232,-11.219 -6.894,-11.286 -4.624,-11.419C-2.353,-11.553 -0.016,-11.753 2.388,-12.02L2.789,-44.875L1.987,-50.485L-16.844,-50.886L-33.673,-49.683C-34.207,-49.951 -34.674,-50.151 -35.075,-50.285C-35.476,-50.418 -35.943,-50.552 -36.477,-50.685C-37.012,-50.819 -37.479,-51.019 -37.88,-51.286C-38.28,-51.553 -38.748,-51.82 -39.282,-52.088C-39.549,-52.622 -39.883,-53.156 -40.284,-53.69C-40.684,-54.224 -40.951,-54.825 -41.085,-55.493C-41.219,-56.161 -41.285,-56.762 -41.285,-57.296L-41.285,-59.3L-39.282,-63.306C-36.344,-64.909 -33.138,-65.777 -29.666,-65.911C-26.193,-66.044 -22.654,-66.178 -19.048,-66.311C-15.442,-66.445 -11.836,-66.512 -8.23,-66.512L2.388,-66.512L2.388,-73.323C2.121,-75.727 1.921,-78.065 1.787,-80.335C1.653,-82.605 1.587,-84.943 1.587,-87.347L1.587,-101.37L-39.282,-101.771L-42.487,-99.367C-43.556,-96.162 -44.424,-92.956 -45.092,-89.751C-45.76,-86.545 -46.628,-83.34 -47.696,-80.135C-48.765,-76.929 -49.7,-73.657 -50.501,-70.318C-51.302,-66.979 -52.371,-63.841 -53.706,-60.902C-54.24,-60.635 -54.775,-60.301 -55.309,-59.901C-55.843,-59.5 -56.444,-59.233 -57.112,-59.099C-57.78,-58.966 -58.381,-58.899 -58.915,-58.899L-60.918,-58.899L-64.925,-60.902C-65.192,-61.437 -65.526,-61.904 -65.927,-62.305C-66.327,-62.705 -66.528,-63.24 -66.528,-63.907C-66.528,-64.575 -66.661,-65.176 -66.928,-65.71C-67.196,-66.245 -67.329,-66.779 -67.329,-67.313C-65.192,-75.327 -63.055,-83.206 -60.918,-90.953C-58.781,-98.699 -56.511,-106.379 -54.107,-113.992C-51.703,-121.604 -49.499,-129.284 -47.496,-137.03C-45.492,-144.777 -43.022,-152.389 -40.083,-159.869C-39.549,-160.136 -39.015,-160.47 -38.481,-160.87C-37.946,-161.271 -37.345,-161.538 -36.678,-161.672C-36.01,-161.805 -35.409,-161.872 -34.875,-161.872L-32.871,-161.872L-28.865,-159.869C-28.597,-159.334 -28.263,-158.733 -27.863,-158.066C-27.462,-157.398 -27.195,-156.663 -27.061,-155.862C-26.928,-155.061 -26.861,-154.259 -26.861,-153.458L-26.861,-151.054C-27.93,-148.383 -28.798,-145.578 -29.466,-142.64C-30.133,-139.701 -30.935,-136.897 -31.87,-134.226C-32.804,-131.554 -33.606,-128.816 -34.274,-126.012C-34.941,-123.207 -35.676,-120.336 -36.477,-117.397L1.587,-116.997C1.854,-119.935 1.987,-122.873 1.987,-125.811L1.987,-134.827C1.987,-137.898 2.054,-140.903 2.188,-143.842C2.321,-146.78 3.456,-149.318 5.593,-151.455C6.128,-151.722 6.662,-152.056 7.196,-152.456C7.73,-152.857 8.331,-153.124 8.999,-153.258C9.667,-153.391 10.268,-153.458 10.802,-153.458L12.806,-153.458L16.812,-151.455C17.079,-150.92 17.413,-150.386 17.814,-149.852C18.215,-149.318 18.482,-148.717 18.615,-148.049C18.749,-147.381 18.816,-146.713 18.816,-146.045L18.816,-143.842C18.281,-141.705 18.014,-139.501 18.014,-137.231L18.014,-130.219C18.014,-127.815 17.947,-125.478 17.814,-123.207C17.68,-120.937 17.614,-118.733 17.614,-116.596L42.856,-116.195C44.726,-116.462 46.662,-116.663 48.666,-116.796C50.669,-116.93 52.673,-116.997 54.676,-116.997C56.679,-116.997 58.616,-117.063 60.486,-117.197C62.355,-117.331 64.359,-117.397 66.496,-117.397C67.297,-117.13 68.098,-116.93 68.9,-116.796C69.701,-116.663 70.502,-116.529 71.304,-116.396C72.105,-116.262 72.84,-115.928 73.508,-115.394C74.175,-114.86 74.91,-114.459 75.711,-114.192C75.978,-113.658 76.312,-113.123 76.713,-112.589C77.114,-112.055 77.381,-111.454 77.514,-110.786C77.648,-110.118 77.715,-109.451 77.715,-108.783L77.715,-106.579L75.711,-102.572C75.177,-102.305 74.643,-101.971 74.109,-101.571C73.574,-101.17 72.973,-100.903 72.306,-100.769C71.638,-100.636 71.037,-100.569 70.502,-100.569L68.499,-100.569C67.965,-100.836 67.431,-101.036 66.896,-101.17C66.362,-101.304 65.895,-101.437 65.494,-101.571C65.093,-101.704 64.559,-101.771 63.891,-101.771L62.088,-101.771L38.449,-100.569L17.614,-100.97L17.614,-78.933L18.415,-66.111L38.048,-66.111C41.253,-66.111 44.525,-66.178 47.864,-66.311C51.203,-66.445 54.208,-65.71 56.88,-64.108C57.147,-63.573 57.481,-63.039 57.881,-62.505C58.282,-61.971 58.549,-61.37 58.683,-60.702C58.816,-60.034 58.883,-59.433 58.883,-58.899L58.883,-56.896L56.88,-52.889C54.208,-51.286 51.27,-50.485 48.065,-50.485L18.415,-50.485L18.415,-45.276L18.816,-26.444L18.415,-12.02L37.247,-12.02C39.384,-12.287 41.52,-12.621 43.657,-13.022C45.794,-13.423 47.998,-13.623 50.268,-13.623L64.092,-13.623L71.304,-13.222L76.112,-13.623L80.119,-11.62C80.386,-11.085 80.72,-10.551 81.12,-10.017C81.521,-9.483 81.788,-8.882 81.922,-8.214C82.055,-7.546 82.122,-6.945 82.122,-6.411L82.122,-4.407L80.119,-0.401C79.317,0.134 78.449,0.601 77.514,1.002C76.579,1.402 75.644,1.736 74.71,2.003C73.775,2.27 72.773,2.471 71.704,2.604C70.636,2.738 69.568,2.805 68.499,2.805C66.896,2.538 65.227,2.337 63.491,2.204C61.754,2.07 59.951,2.003 58.082,2.003L47.263,2.003C41.12,3.072 34.843,3.606 28.432,3.606C22.021,3.606 15.477,3.673 8.799,3.806C2.121,3.94 -4.357,4.14 -10.634,4.407C-16.911,4.675 -23.255,5.075 -29.666,5.609Z" style="fill:none;fill-rule:nonzero;stroke:rgb(236,39,39);stroke-width:7.5px;" class="naiRBkJe_9"></path>
            <path d="M242.106,-6.411C236.764,-6.678 231.488,-7.012 226.279,-7.412C221.071,-7.813 215.862,-8.414 210.653,-9.215C205.444,-10.017 200.102,-10.351 194.626,-10.217C189.15,-10.084 183.741,-10.017 178.399,-10.017C174.659,-10.017 171.053,-9.816 167.581,-9.416C164.108,-9.015 160.569,-8.681 156.963,-8.414C153.357,-8.147 149.684,-8.013 145.944,-8.013C142.205,-8.013 138.599,-7.746 135.126,-7.212L131.12,-9.215C130.051,-10.284 129.45,-11.553 129.317,-13.022C129.183,-14.491 129.049,-15.893 128.916,-17.229C128.782,-18.565 128.715,-19.967 128.715,-21.436L128.715,-26.044C129.25,-35.66 129.851,-45.276 130.519,-54.892C131.186,-64.508 132.188,-74.191 133.524,-83.941C134.859,-93.691 135.794,-103.374 136.328,-112.99C136.863,-122.606 138.332,-132.089 140.736,-141.438C141.804,-142.506 143.006,-143.174 144.342,-143.441C145.677,-143.708 147.08,-143.842 148.549,-143.842L157.564,-143.842C164.509,-143.04 171.521,-142.506 178.599,-142.239C185.678,-141.972 192.623,-141.371 199.434,-140.436C206.246,-139.501 213.124,-138.7 220.069,-138.032C227.014,-137.364 233.692,-135.828 240.103,-133.424C241.972,-123.808 243.308,-113.925 244.109,-103.774C244.911,-93.624 245.846,-83.407 246.914,-73.123C247.983,-62.839 248.917,-52.689 249.719,-42.672C250.52,-32.655 251.322,-22.571 252.123,-12.421L250.12,-8.414C249.585,-8.147 249.051,-7.813 248.517,-7.412C247.983,-7.012 247.382,-6.745 246.714,-6.611C246.046,-6.478 245.445,-6.411 244.911,-6.411L242.907,-6.411L242.507,-6.811L242.106,-6.411ZM236.096,-22.838C235.562,-26.311 235.161,-29.717 234.894,-33.056C234.627,-36.394 234.36,-39.8 234.093,-43.273C233.825,-46.745 233.492,-50.218 233.091,-53.69C232.69,-57.163 232.49,-60.635 232.49,-64.108C227.682,-65.176 222.74,-65.911 217.665,-66.311C212.59,-66.712 207.581,-67.18 202.64,-67.714C197.698,-68.248 192.556,-68.515 187.214,-68.515L171.588,-68.515C169.718,-68.248 167.781,-68.048 165.778,-67.914C163.774,-67.781 161.704,-67.714 159.567,-67.714L153.157,-67.714C151.02,-67.714 149.016,-67.58 147.146,-67.313C146.612,-63.841 146.278,-60.235 146.145,-56.495C146.011,-52.755 145.811,-49.082 145.544,-45.476C145.277,-41.87 145.143,-38.198 145.143,-34.458C145.143,-30.718 144.876,-27.112 144.342,-23.64L154.759,-23.64C158.766,-24.174 162.906,-24.575 167.18,-24.842C171.454,-25.109 175.728,-25.309 180.002,-25.443C184.276,-25.576 188.616,-25.643 193.024,-25.643L206.045,-25.643C208.449,-25.109 210.854,-24.708 213.258,-24.441C215.662,-24.174 218.132,-23.907 220.67,-23.64C223.208,-23.373 225.745,-23.172 228.283,-23.039C230.82,-22.905 233.291,-22.705 235.695,-22.438L236.096,-22.838ZM230.487,-80.936L230.487,-82.939C229.952,-86.145 229.618,-89.35 229.485,-92.556C229.351,-95.761 229.151,-99.033 228.884,-102.372C228.617,-105.711 228.283,-108.916 227.882,-111.988C227.481,-115.06 227.014,-118.199 226.48,-121.404C220.603,-121.938 214.66,-122.673 208.65,-123.608C202.64,-124.543 196.496,-125.21 190.219,-125.611C183.942,-126.012 177.798,-126.479 171.788,-127.013C165.778,-127.548 159.701,-127.948 153.557,-128.215L149.15,-83.741L167.18,-83.741C169.317,-84.275 171.654,-84.542 174.192,-84.542L196.83,-84.542L230.487,-80.936Z" style="fill:none;fill-rule:nonzero;stroke:rgb(236,39,39);stroke-width:7.5px;" class="naiRBkJe_10"></path>
            <path d="M-339.508,210.754C-340.042,210.487 -340.51,210.287 -340.91,210.153C-341.311,210.02 -341.779,209.886 -342.313,209.752C-342.847,209.619 -343.315,209.419 -343.715,209.151C-344.116,208.884 -344.583,208.617 -345.118,208.35C-345.385,207.816 -345.719,207.282 -346.119,206.747C-346.52,206.213 -346.787,205.612 -346.921,204.944C-347.054,204.277 -347.121,203.676 -347.121,203.141L-347.121,201.138C-346.587,199.802 -346.32,198.267 -346.32,196.53L-346.32,181.906C-346.587,180.036 -347.121,178.233 -347.922,176.497C-348.724,174.76 -349.458,173.024 -350.126,171.288C-350.794,169.552 -351.595,167.815 -352.53,166.079C-353.465,164.343 -354.734,162.807 -356.336,161.471C-358.473,160.136 -360.677,159.134 -362.948,158.466C-365.218,157.799 -367.555,157.131 -369.959,156.463C-372.363,155.795 -374.834,155.394 -377.372,155.261C-379.909,155.127 -382.514,155.061 -385.185,155.061C-384.918,159.602 -384.985,163.942 -385.385,168.082C-385.786,172.223 -386.654,176.163 -387.99,179.902C-389.325,183.642 -390.928,187.382 -392.798,191.121C-394.667,194.861 -397.072,198.333 -400.01,201.539C-401.345,202.607 -402.614,203.609 -403.816,204.544C-405.018,205.479 -406.354,206.213 -407.823,206.747C-409.292,207.282 -410.761,207.816 -412.23,208.35C-413.699,208.884 -415.235,209.151 -416.838,209.151C-418.975,208.884 -421.112,208.55 -423.249,208.15C-425.386,207.749 -427.389,207.081 -429.259,206.146C-431.129,205.212 -432.999,204.21 -434.868,203.141C-436.738,202.073 -438.474,200.737 -440.077,199.135C-441.413,197.265 -442.615,195.395 -443.683,193.525C-444.752,191.655 -445.687,189.786 -446.488,187.916C-447.289,186.046 -447.823,183.976 -448.091,181.705C-448.358,179.435 -448.625,177.231 -448.892,175.094C-448.358,172.957 -447.89,170.887 -447.49,168.884C-447.089,166.88 -446.421,164.944 -445.486,163.074C-444.551,161.204 -443.483,159.401 -442.281,157.665C-441.079,155.929 -439.81,154.259 -438.474,152.657C-436.07,150.252 -433.466,148.049 -430.661,146.045C-427.857,144.042 -424.852,142.64 -421.646,141.838C-418.441,141.037 -415.235,140.369 -412.03,139.835C-408.825,139.301 -405.352,139.167 -401.612,139.434L-401.612,129.818L-402.815,102.973L-419.643,102.973L-422.047,103.374C-423.65,103.107 -425.319,102.973 -427.055,102.973C-428.791,102.973 -430.461,102.906 -432.064,102.773C-433.666,102.639 -435.269,102.439 -436.872,102.172C-438.474,101.905 -439.944,101.237 -441.279,100.168C-441.546,99.634 -441.88,99.1 -442.281,98.566C-442.681,98.031 -442.949,97.43 -443.082,96.763C-443.216,96.095 -443.283,95.494 -443.283,94.96L-443.283,92.956L-441.279,88.949C-440.478,88.415 -439.743,87.948 -439.075,87.547C-438.408,87.146 -437.673,86.946 -436.872,86.946L-431.663,86.946L-420.043,87.747L-403.616,87.347L-403.616,82.539C-404.15,81.203 -404.417,79.868 -404.417,78.532L-404.417,74.325C-404.417,72.856 -404.551,71.453 -404.818,70.118C-405.085,68.782 -405.085,67.313 -404.818,65.71C-404.551,65.176 -404.35,64.709 -404.217,64.308C-404.083,63.907 -403.95,63.44 -403.816,62.906C-403.683,62.371 -403.482,61.904 -403.215,61.503C-402.948,61.103 -402.681,60.635 -402.414,60.101C-401.88,59.834 -401.345,59.5 -400.811,59.099C-400.277,58.699 -399.676,58.432 -399.008,58.298C-398.34,58.164 -397.739,58.098 -397.205,58.098L-395.202,58.098L-390.794,60.101C-389.459,61.971 -388.791,64.041 -388.791,66.311C-388.791,68.582 -388.724,70.919 -388.591,73.323C-388.457,75.727 -388.257,77.998 -387.99,80.135C-387.722,82.272 -387.589,84.542 -387.589,86.946C-384.384,87.213 -381.245,87.48 -378.173,87.747C-375.101,88.015 -372.029,88.215 -368.958,88.348C-365.886,88.482 -362.747,88.616 -359.542,88.749C-356.336,88.883 -353.398,89.617 -350.727,90.953C-350.46,91.487 -350.126,92.021 -349.725,92.556C-349.325,93.09 -349.058,93.691 -348.924,94.359C-348.79,95.026 -348.724,95.627 -348.724,96.162L-348.724,98.165L-350.727,102.172C-351.528,102.706 -352.33,103.173 -353.131,103.574C-353.932,103.975 -354.734,104.242 -355.535,104.375C-356.336,104.509 -357.205,104.576 -358.139,104.576L-361.144,104.576L-386.788,102.572L-386.788,106.178L-385.185,139.034C-381.712,139.301 -378.173,139.568 -374.567,139.835C-370.961,140.102 -367.488,140.703 -364.15,141.638C-360.811,142.573 -357.538,143.641 -354.333,144.843C-351.128,146.045 -348.189,147.715 -345.518,149.852L-341.511,154.259C-339.375,157.465 -337.505,160.937 -335.902,164.677C-334.299,168.416 -333.031,172.223 -332.096,176.096C-331.161,179.969 -330.693,183.976 -330.693,188.116L-330.693,200.737C-330.96,201.272 -331.161,201.873 -331.294,202.54C-331.428,203.208 -331.561,203.876 -331.695,204.544C-331.829,205.212 -332.096,205.879 -332.496,206.547C-332.897,207.215 -333.231,207.816 -333.498,208.35C-334.032,208.617 -334.5,208.884 -334.9,209.151C-335.301,209.419 -335.769,209.686 -336.303,209.953C-336.837,210.22 -337.371,210.353 -337.905,210.353C-338.44,210.353 -338.974,210.487 -339.508,210.754ZM-411.229,190.72C-409.092,188.316 -407.422,185.712 -406.22,182.907C-405.018,180.103 -403.883,177.231 -402.815,174.293C-401.746,171.355 -401.212,168.216 -401.212,164.877L-401.212,155.061L-410.427,155.061C-412.03,155.328 -413.633,155.728 -415.235,156.263C-416.838,156.797 -418.374,157.331 -419.843,157.865C-421.312,158.4 -422.648,159.268 -423.85,160.47C-425.052,161.672 -426.321,162.807 -427.656,163.875C-428.19,165.211 -428.858,166.413 -429.66,167.481C-430.461,168.55 -431.129,169.752 -431.663,171.088C-432.197,172.423 -432.598,173.759 -432.865,175.094C-433.132,176.43 -433.132,177.899 -432.865,179.502L-428.458,189.118C-427.389,189.385 -426.387,189.786 -425.453,190.32C-424.518,190.854 -423.583,191.388 -422.648,191.923C-421.713,192.457 -420.711,192.791 -419.643,192.924C-418.574,193.058 -417.372,193.125 -416.037,193.125L-411.229,190.72ZM-321.077,157.064L-325.084,155.061C-326.687,151.855 -327.955,148.449 -328.89,144.843C-329.825,141.237 -330.493,137.431 -330.894,133.424C-331.294,129.417 -331.829,125.544 -332.496,121.805C-333.164,118.065 -333.765,114.325 -334.299,110.586L-332.296,106.579C-331.762,106.312 -331.228,105.978 -330.693,105.577C-330.159,105.177 -329.558,104.91 -328.89,104.776C-328.222,104.643 -327.621,104.576 -327.087,104.576L-325.084,104.576L-321.077,106.579C-319.474,109.784 -318.272,113.257 -317.471,116.997C-316.67,120.736 -316.136,124.609 -315.868,128.616C-315.601,132.623 -314.933,136.362 -313.865,139.835C-312.797,143.307 -312.129,147.047 -311.862,151.054L-313.865,155.061C-314.399,155.328 -314.933,155.662 -315.468,156.062C-316.002,156.463 -316.603,156.73 -317.271,156.864C-317.939,156.997 -318.54,157.064 -319.074,157.064L-321.077,157.064Z" style="fill:none;fill-rule:nonzero;stroke:rgb(236,39,39);stroke-width:7.5px;" class="naiRBkJe_11"></path>
            <path d="M-254.194,198.734C-255.796,198.467 -257.332,198.2 -258.801,197.933C-260.27,197.665 -261.606,197.198 -262.808,196.53C-264.01,195.862 -265.279,195.061 -266.614,194.126C-267.95,193.191 -269.152,192.19 -270.22,191.121C-271.823,188.984 -273.426,186.914 -275.029,184.911C-276.631,182.907 -277.967,180.704 -279.035,178.3C-280.104,175.896 -280.838,173.425 -281.239,170.887C-281.64,168.35 -281.84,165.745 -281.84,163.074C-281.573,158.8 -280.905,154.727 -279.837,150.854C-278.768,146.98 -277.433,143.174 -275.83,139.434C-274.227,135.695 -272.024,132.222 -269.219,129.017C-266.414,125.811 -263.543,122.606 -260.604,119.401L-250.187,112.99L-250.187,111.387C-250.988,108.983 -251.856,106.646 -252.791,104.375C-253.726,102.105 -254.527,99.701 -255.195,97.163C-255.863,94.626 -256.731,92.222 -257.8,89.951C-258.868,87.681 -259.669,85.343 -260.204,82.939C-259.937,82.405 -259.736,81.938 -259.603,81.537C-259.469,81.136 -259.336,80.669 -259.202,80.135C-259.068,79.6 -258.868,79.133 -258.601,78.732C-258.334,78.332 -258.067,77.864 -257.8,77.33C-257.265,77.063 -256.731,76.729 -256.197,76.328C-255.663,75.928 -255.062,75.66 -254.394,75.527C-253.726,75.393 -253.125,75.327 -252.591,75.327L-250.587,75.327L-246.581,77.33C-245.245,79.467 -244.11,81.804 -243.175,84.342C-242.24,86.879 -241.372,89.417 -240.571,91.955C-239.769,94.492 -238.901,96.963 -237.966,99.367C-237.031,101.771 -236.163,104.309 -235.362,106.98L-233.359,106.98C-231.489,106.446 -229.552,105.911 -227.549,105.377C-225.545,104.843 -223.475,104.509 -221.338,104.375C-219.201,104.242 -216.998,104.175 -214.727,104.175C-212.457,104.175 -210.253,104.042 -208.116,103.774C-207.582,101.103 -207.181,98.365 -206.914,95.561C-206.647,92.756 -206.447,89.884 -206.313,86.946C-206.18,84.008 -206.113,81.003 -206.113,77.931C-206.113,74.859 -205.311,72.255 -203.709,70.118C-203.174,69.851 -202.64,69.517 -202.106,69.116C-201.572,68.715 -200.971,68.448 -200.303,68.315C-199.635,68.181 -198.967,68.114 -198.3,68.114L-196.096,68.114L-192.089,70.118C-191.822,70.652 -191.488,71.253 -191.088,71.921C-190.687,72.589 -190.42,73.256 -190.286,73.924C-190.153,74.592 -190.086,75.327 -190.086,76.128L-190.086,78.532C-190.353,80.669 -190.553,82.873 -190.687,85.143C-190.82,87.414 -190.954,89.684 -191.088,91.955C-191.221,94.225 -191.488,96.429 -191.889,98.566C-192.29,100.703 -192.49,102.839 -192.49,104.976C-189.284,105.244 -186.213,105.845 -183.274,106.779C-180.336,107.714 -177.531,108.916 -174.86,110.385C-172.189,111.855 -169.518,113.391 -166.847,114.993C-164.176,116.596 -161.504,118.332 -158.833,120.202C-155.628,123.407 -153.157,127.08 -151.421,131.221C-149.685,135.361 -148.416,139.568 -147.614,143.842C-146.813,148.116 -146.346,152.523 -146.212,157.064C-146.079,161.605 -146.012,166.146 -146.012,170.687C-146.279,172.824 -146.546,174.894 -146.813,176.897C-147.08,178.901 -147.481,180.904 -148.015,182.907C-148.549,184.911 -148.816,186.981 -148.816,189.118C-148.816,191.255 -149.484,193.125 -150.82,194.727C-151.354,194.994 -151.888,195.328 -152.423,195.729C-152.957,196.13 -153.558,196.397 -154.226,196.53C-154.893,196.664 -155.494,196.731 -156.029,196.731L-158.032,196.731L-162.039,194.727C-162.573,194.193 -162.974,193.592 -163.241,192.924C-163.508,192.256 -163.708,191.522 -163.842,190.72C-163.975,189.919 -164.109,189.118 -164.242,188.316C-164.376,187.515 -164.443,186.714 -164.443,185.912C-163.641,183.508 -163.04,180.971 -162.64,178.3C-162.239,175.628 -161.972,172.957 -161.838,170.286C-161.705,167.615 -161.638,164.81 -161.638,161.872L-161.638,153.458C-161.905,151.321 -162.239,149.318 -162.64,147.448C-163.04,145.578 -163.575,143.708 -164.242,141.838C-164.91,139.969 -165.645,138.166 -166.446,136.429C-167.247,134.693 -168.449,133.157 -170.052,131.822C-171.922,130.219 -173.859,128.883 -175.862,127.815C-177.865,126.746 -179.935,125.611 -182.072,124.409C-184.209,123.207 -186.346,122.272 -188.483,121.604C-190.62,120.937 -192.891,120.469 -195.295,120.202C-196.096,124.476 -197.031,128.816 -198.099,133.224C-199.168,137.631 -200.437,141.838 -201.906,145.845C-203.375,149.852 -204.777,153.925 -206.113,158.066C-207.448,162.206 -209.051,166.279 -210.921,170.286C-210.387,171.622 -209.786,172.891 -209.118,174.093C-208.45,175.295 -207.849,176.563 -207.315,177.899C-206.781,179.235 -206.246,180.57 -205.712,181.906C-205.178,183.241 -205.044,184.71 -205.311,186.313L-207.315,190.32C-207.849,190.587 -208.383,190.921 -208.917,191.322C-209.452,191.722 -210.053,191.989 -210.721,192.123C-211.388,192.256 -212.056,192.323 -212.724,192.323L-214.928,192.323L-219.335,190.32L-222.14,184.71L-222.941,184.71C-225.078,186.847 -227.282,188.917 -229.552,190.921C-231.823,192.924 -234.293,194.393 -236.965,195.328C-239.636,196.263 -242.374,197.064 -245.178,197.732C-247.983,198.4 -250.988,198.734 -254.194,198.734ZM-239.769,179.101L-229.352,169.084L-229.352,167.882L-244.177,127.815L-245.379,127.815C-247.249,128.616 -248.918,129.818 -250.387,131.421C-251.856,133.024 -253.325,134.626 -254.795,136.229C-256.264,137.832 -257.599,139.434 -258.801,141.037C-260.003,142.64 -261.005,144.376 -261.806,146.246C-262.341,147.848 -262.875,149.451 -263.409,151.054C-263.943,152.657 -264.411,154.259 -264.811,155.862C-265.212,157.465 -265.546,159.134 -265.813,160.87C-266.08,162.607 -266.214,164.41 -266.214,166.279C-265.947,167.615 -265.613,168.951 -265.212,170.286C-264.811,171.622 -264.277,172.891 -263.609,174.093C-262.942,175.295 -262.14,176.43 -261.205,177.498C-260.27,178.567 -259.402,179.635 -258.601,180.704C-258.067,180.971 -257.466,181.305 -256.798,181.705C-256.13,182.106 -255.396,182.44 -254.594,182.707C-253.793,182.974 -252.992,183.108 -252.19,183.108L-249.786,183.108L-239.769,179.101ZM-219.335,147.848L-219.335,147.047C-218.534,144.91 -217.666,142.706 -216.731,140.436C-215.796,138.166 -214.994,135.895 -214.327,133.625C-213.659,131.354 -213.058,129.084 -212.524,126.813C-211.989,124.543 -211.455,122.205 -210.921,119.801L-222.14,119.801L-229.352,121.805L-229.352,122.606L-219.736,148.249L-219.335,147.848Z" style="fill:none;fill-rule:nonzero;stroke:rgb(236,39,39);stroke-width:7.5px;" class="naiRBkJe_12"></path>
            <path d="M-8.433,84.943L-12.44,82.939C-14.043,80.802 -14.978,78.332 -15.245,75.527C-15.512,72.722 -15.779,69.984 -16.046,67.313C-16.313,64.642 -16.514,61.904 -16.647,59.099C-16.781,56.295 -16.848,53.423 -16.848,50.485L-14.844,46.478C-14.31,46.211 -13.776,45.877 -13.241,45.476C-12.707,45.076 -12.106,44.809 -11.438,44.675C-10.771,44.542 -10.17,44.475 -9.635,44.475L-7.632,44.475L-3.625,46.478C-2.023,48.615 -1.221,51.153 -1.221,54.091C-1.221,57.029 -1.088,59.834 -0.821,62.505C-0.553,65.176 -0.286,67.914 -0.019,70.719C0.248,73.524 0.515,76.261 0.782,78.933L-1.221,82.939C-1.755,83.206 -2.29,83.54 -2.824,83.941C-3.358,84.342 -3.959,84.609 -4.627,84.742C-5.295,84.876 -5.896,84.943 -6.43,84.943L-8.433,84.943ZM18.011,84.141L14.004,82.138C12.669,79.734 11.734,77.196 11.2,74.525C10.665,71.854 10.331,69.116 10.198,66.311C10.064,63.507 9.931,60.635 9.797,57.697C9.664,54.759 9.597,51.82 9.597,48.882L11.6,44.875C12.135,44.608 12.669,44.274 13.203,43.874C13.737,43.473 14.338,43.206 15.006,43.072C15.674,42.939 16.275,42.872 16.809,42.872L18.812,42.872L22.819,44.875C24.422,47.012 25.223,49.55 25.223,52.488C25.223,55.426 25.29,58.365 25.424,61.303C25.557,64.241 25.891,67.046 26.425,69.717C26.959,72.388 27.227,75.193 27.227,78.131L25.223,82.138C24.689,82.405 24.155,82.739 23.62,83.14C23.086,83.54 22.485,83.808 21.817,83.941C21.15,84.075 20.549,84.141 20.014,84.141L18.011,84.141ZM-43.292,203.542C-45.963,203.008 -48.567,202.407 -51.105,201.739C-53.643,201.071 -56.113,200.203 -58.518,199.135C-60.922,198.066 -63.392,196.931 -65.93,195.729C-68.468,194.527 -70.805,193.125 -72.942,191.522C-75.346,188.584 -77.349,185.445 -78.952,182.106C-80.555,178.767 -81.89,175.361 -82.959,171.889C-84.027,168.416 -84.561,164.744 -84.561,160.87L-84.561,149.05C-83.493,144.51 -82.224,140.035 -80.755,135.628C-79.286,131.221 -77.416,127.013 -75.145,123.007C-72.875,119 -70.337,115.06 -67.533,111.187C-64.728,107.314 -61.589,103.641 -58.117,100.168L-54.911,96.963L-52.107,94.158L-66.531,92.956L-112.208,92.956L-114.211,93.357L-124.629,92.956L-128.635,93.357L-132.642,91.354C-132.909,90.819 -133.243,90.285 -133.644,89.751C-134.044,89.217 -134.312,88.616 -134.445,87.948C-134.579,87.28 -134.645,86.679 -134.645,86.145L-134.645,84.141L-132.642,80.135C-131.307,79.066 -129.904,78.332 -128.435,77.931C-126.966,77.53 -125.43,77.33 -123.827,77.33L-113.81,77.33L-112.608,77.731L-112.208,77.33L-66.531,77.33C-62.524,77.864 -58.518,78.198 -54.511,78.332C-50.504,78.465 -46.564,78.732 -42.691,79.133C-38.818,79.534 -34.878,79.667 -30.871,79.534C-26.864,79.4 -23.125,80.268 -19.652,82.138C-19.385,82.672 -19.051,83.206 -18.651,83.741C-18.25,84.275 -17.983,84.876 -17.849,85.544C-17.716,86.212 -17.649,86.813 -17.649,87.347L-17.649,89.35L-19.652,93.357C-21.522,94.425 -23.325,95.494 -25.061,96.562C-26.798,97.631 -28.601,98.566 -30.47,99.367C-32.34,100.168 -34.21,101.103 -36.08,102.172C-37.95,103.24 -39.686,104.576 -41.289,106.178L-41.689,106.98C-44.093,108.582 -46.364,110.385 -48.501,112.389C-50.638,114.392 -52.441,116.596 -53.91,119C-55.379,121.404 -56.915,123.808 -58.518,126.212C-60.12,128.616 -61.456,131.154 -62.524,133.825C-63.326,136.229 -64.261,138.633 -65.329,141.037C-66.397,143.441 -67.332,145.845 -68.134,148.249C-68.935,150.653 -69.202,153.324 -68.935,156.263C-68.668,159.201 -68.668,162.006 -68.935,164.677C-68.401,166.012 -67.867,167.348 -67.332,168.683C-66.798,170.019 -66.197,171.288 -65.529,172.49C-64.862,173.692 -64.261,174.961 -63.726,176.296C-63.192,177.632 -62.524,178.834 -61.723,179.902C-59.853,180.971 -57.85,181.972 -55.713,182.907C-53.576,183.842 -51.439,184.71 -49.302,185.512C-47.165,186.313 -44.961,186.981 -42.691,187.515C-40.42,188.049 -38.083,188.183 -35.679,187.916L-28.066,187.515L-24.06,189.518C-23.793,190.053 -23.459,190.587 -23.058,191.121C-22.657,191.655 -22.39,192.256 -22.257,192.924C-22.123,193.592 -22.056,194.193 -22.056,194.727L-22.056,196.731L-24.06,200.737C-25.395,201.806 -26.864,202.474 -28.467,202.741C-30.07,203.008 -31.672,203.208 -33.275,203.342C-34.878,203.475 -36.547,203.542 -38.284,203.542L-43.292,203.542Z" style="fill:none;fill-rule:nonzero;stroke:rgb(236,39,39);stroke-width:7.5px;" class="naiRBkJe_13"></path>
            <path d="M104.864,208.35C101.926,207.816 98.921,207.415 95.849,207.148C92.777,206.881 89.973,206.213 87.435,205.145C84.897,204.076 82.427,202.741 80.022,201.138C77.618,199.535 75.348,197.665 73.211,195.529C71.074,193.125 69.338,190.587 68.002,187.916C66.667,185.245 65.665,182.44 64.997,179.502C64.329,176.563 63.728,173.558 63.194,170.486C62.66,167.415 62.393,164.276 62.393,161.071C62.66,158.132 63.328,155.394 64.396,152.857C65.465,150.319 66.8,147.915 68.403,145.645C70.006,143.374 71.675,141.104 73.411,138.833C75.148,136.563 76.684,134.226 78.019,131.822C74.814,126.746 71.942,121.538 69.405,116.195C66.867,110.853 64.53,105.511 62.393,100.168C60.256,94.826 58.119,89.484 55.982,84.141C53.845,78.799 52.242,73.19 51.174,67.313L53.177,63.306C53.712,63.039 54.246,62.705 54.78,62.305C55.314,61.904 55.915,61.637 56.583,61.503C57.251,61.37 57.852,61.303 58.386,61.303L60.389,61.303L64.396,63.306C66.8,67.847 68.87,72.589 70.607,77.53C72.343,82.472 74.213,87.347 76.216,92.155C78.219,96.963 80.29,101.704 82.427,106.379C84.563,111.053 86.834,115.795 89.238,120.603L90.841,121.003C94.847,118.065 99.054,115.394 103.462,112.99C107.869,110.586 112.41,108.516 117.085,106.779C121.759,105.043 126.434,103.374 131.108,101.771C135.783,100.168 140.791,99.634 146.134,100.168L150.14,102.172C150.407,102.706 150.741,103.24 151.142,103.774C151.543,104.309 151.81,104.91 151.943,105.577C152.077,106.245 152.144,106.846 152.144,107.38L152.144,109.384L150.14,113.391C145.332,114.459 140.457,115.728 135.516,117.197C130.574,118.666 125.766,120.336 121.091,122.205C116.417,124.075 111.876,126.412 107.469,129.217C103.061,132.022 98.721,134.893 94.447,137.832L94.046,138.633C92.443,139.969 90.974,141.504 89.639,143.241C88.303,144.977 86.967,146.713 85.632,148.449C84.296,150.186 83.094,151.922 82.026,153.658C80.957,155.394 79.889,157.197 78.82,159.067L78.019,165.478C78.286,167.348 78.553,169.218 78.82,171.088C79.088,172.957 79.555,174.76 80.223,176.497C80.891,178.233 81.625,179.969 82.427,181.705C83.228,183.442 84.43,184.978 86.033,186.313C88.437,188.45 91.108,189.986 94.046,190.921C96.984,191.856 100.19,192.39 103.662,192.524C107.135,192.657 110.54,192.724 113.879,192.724L123.696,192.724C126.1,191.655 128.638,191.188 131.309,191.322C133.98,191.455 136.584,191.255 139.122,190.72C141.659,190.186 143.997,189.185 146.134,187.715C148.27,186.246 150.808,185.645 153.746,185.912L157.753,187.916C158.02,188.45 158.354,188.984 158.755,189.518C159.155,190.053 159.423,190.654 159.556,191.322C159.69,191.989 159.756,192.657 159.756,193.325L159.756,195.529L157.753,199.535C154.013,202.206 150.007,204.076 145.733,205.145C141.459,206.213 137.052,206.881 132.511,207.148C127.97,207.415 123.429,207.749 118.888,208.15C114.347,208.55 109.672,208.617 104.864,208.35Z" style="fill:none;fill-rule:nonzero;stroke:rgb(236,39,39);stroke-width:7.5px;" class="naiRBkJe_14"></path>
            <path d="M230.39,210.353C229.856,210.086 229.389,209.886 228.988,209.752C228.587,209.619 228.12,209.485 227.586,209.352C227.051,209.218 226.584,209.018 226.183,208.751C225.783,208.484 225.315,208.217 224.781,207.949C224.514,207.415 224.18,206.881 223.779,206.347C223.379,205.813 223.111,205.212 222.978,204.544C222.844,203.876 222.778,203.275 222.778,202.741L222.778,200.737L225.182,196.33C227.051,194.994 228.988,193.792 230.991,192.724C232.995,191.655 234.998,190.32 237.001,188.717C239.005,187.114 240.941,185.579 242.811,184.109C244.681,182.64 246.417,181.104 248.02,179.502C249.088,178.967 250.157,178.3 251.225,177.498C252.294,176.697 253.229,175.829 254.03,174.894C254.831,173.959 255.566,172.957 256.234,171.889C256.902,170.82 257.503,169.752 258.037,168.683C258.304,166.814 258.838,165.011 259.64,163.274C260.441,161.538 261.109,159.735 261.643,157.865C262.177,155.995 262.377,153.992 262.244,151.855C262.11,149.718 262.044,147.581 262.044,145.444C261.509,143.575 261.042,141.772 260.641,140.035C260.241,138.299 259.706,136.63 259.038,135.027C258.371,133.424 257.636,131.755 256.835,130.018C256.033,128.282 254.965,126.746 253.629,125.411L249.623,122.606C249.356,121.805 248.888,121.27 248.22,121.003C247.553,120.736 246.885,120.336 246.217,119.801C245.549,119.267 244.815,118.866 244.013,118.599C243.212,118.332 242.544,117.932 242.01,117.397C240.407,117.13 238.804,116.796 237.202,116.396C235.599,115.995 234.063,115.594 232.594,115.194C231.125,114.793 229.522,114.593 227.786,114.593L222.778,114.593C220.106,115.127 217.435,115.527 214.764,115.795C212.093,116.062 209.489,116.529 206.951,117.197C204.413,117.865 201.809,118.332 199.138,118.599C196.467,118.866 193.796,119.134 191.124,119.401L187.118,117.397C186.851,116.863 186.517,116.329 186.116,115.795C185.715,115.26 185.448,114.659 185.315,113.992C185.181,113.324 185.114,112.723 185.114,112.189L185.114,110.185L187.118,106.178C190.323,104.042 193.862,102.839 197.735,102.572C201.609,102.305 205.415,101.771 209.155,100.97C212.894,100.168 216.701,99.634 220.574,99.367C224.447,99.1 228.387,98.966 232.394,98.966C235.065,99.501 237.602,100.102 240.007,100.769C242.411,101.437 244.748,102.105 247.018,102.773C249.289,103.44 251.492,104.375 253.629,105.577C255.766,106.779 257.903,108.182 260.04,109.784C261.376,111.12 262.845,112.522 264.448,113.992C266.05,115.461 267.386,117.063 268.454,118.8C269.523,120.536 270.458,122.272 271.259,124.008C272.06,125.745 272.995,127.548 274.064,129.417C274.598,131.554 275.132,133.758 275.666,136.029C276.201,138.299 276.735,140.503 277.269,142.64C277.803,144.777 278.004,147.114 277.87,149.651C277.737,152.189 277.67,154.66 277.67,157.064C277.403,159.735 276.802,162.206 275.867,164.476C274.932,166.747 274.131,169.151 273.463,171.689C272.795,174.226 271.793,176.563 270.458,178.7C269.122,180.837 267.653,182.974 266.05,185.111L263.246,187.916L260.842,189.118L260.842,189.919L258.437,191.121L258.437,191.923C257.369,192.724 256.301,193.458 255.232,194.126C254.164,194.794 253.095,195.595 252.027,196.53C250.958,197.465 249.957,198.4 249.022,199.335C248.087,200.27 247.219,201.138 246.417,201.939C245.082,202.741 243.813,203.542 242.611,204.343C241.409,205.145 240.14,205.946 238.804,206.747C237.469,207.549 236.133,208.283 234.798,208.951C233.462,209.619 231.993,210.086 230.39,210.353ZM230.791,93.357L226.784,91.354C224.914,88.148 223.379,84.876 222.177,81.537C220.975,78.198 219.839,74.792 218.771,71.32C217.702,67.847 216.367,64.508 214.764,61.303C213.161,58.098 212.093,54.625 211.559,50.886L213.562,46.879C214.096,46.612 214.631,46.278 215.165,45.877C215.699,45.476 216.3,45.209 216.968,45.076C217.636,44.942 218.237,44.875 218.771,44.875L220.774,44.875L224.781,46.879C226.918,49.817 228.721,52.956 230.19,56.295C231.659,59.634 232.928,63.039 233.996,66.512C235.065,69.984 236.334,73.39 237.803,76.729C239.272,80.068 240.14,83.607 240.407,87.347L238.404,91.354C237.87,91.621 237.335,91.955 236.801,92.355C236.267,92.756 235.666,93.023 234.998,93.157C234.33,93.29 233.729,93.357 233.195,93.357L230.791,93.357Z" style="fill:none;fill-rule:nonzero;stroke:rgb(236,39,39);stroke-width:7.5px;" class="naiRBkJe_15"></path>
            <path d="M336.989,211.155C336.454,210.888 335.92,210.687 335.386,210.554C334.852,210.42 334.318,210.287 333.783,210.153C333.249,210.02 332.782,209.752 332.381,209.352C331.98,208.951 331.513,208.617 330.979,208.35C330.444,207.549 329.91,206.814 329.376,206.146C328.842,205.479 328.508,204.677 328.374,203.742C328.241,202.807 328.107,201.939 327.974,201.138C327.84,200.337 327.773,199.402 327.773,198.333C328.04,197.799 328.241,197.332 328.374,196.931C328.508,196.53 328.641,196.063 328.775,195.529C328.908,194.994 329.109,194.527 329.376,194.126C329.643,193.726 329.91,193.258 330.177,192.724C330.979,192.19 331.78,191.655 332.581,191.121C333.383,190.587 334.251,190.253 335.186,190.119C336.121,189.986 337.122,189.919 338.191,189.919L341.396,189.919L346.605,192.323L346.605,193.125L347.406,193.125C347.94,193.926 348.408,194.66 348.809,195.328C349.209,195.996 349.543,196.731 349.81,197.532C350.077,198.333 350.211,199.268 350.211,200.337L350.211,203.141L348.208,207.148L347.406,207.148L347.406,207.949C346.605,208.484 345.87,208.951 345.202,209.352C344.535,209.752 343.733,210.086 342.798,210.353C341.864,210.621 340.995,210.821 340.194,210.954C339.393,211.088 338.324,211.155 336.989,211.155ZM336.187,170.687L332.181,168.683C331.913,168.149 331.58,167.682 331.179,167.281C330.778,166.88 330.578,166.346 330.578,165.678C330.578,165.011 330.444,164.41 330.177,163.875C329.91,163.341 329.777,162.807 329.777,162.273L330.177,147.848L329.777,144.242C330.044,143.174 330.244,141.905 330.378,140.436C330.511,138.967 330.578,137.565 330.578,136.229L330.578,132.222C330.578,130.887 330.711,129.685 330.979,128.616L330.979,68.114L330.578,66.512C330.845,65.978 331.045,65.51 331.179,65.109C331.312,64.709 331.446,64.241 331.58,63.707C331.713,63.173 331.913,62.705 332.181,62.305C332.448,61.904 332.715,61.437 332.982,60.902C333.516,60.635 334.05,60.301 334.585,59.901C335.119,59.5 335.72,59.233 336.388,59.099C337.055,58.966 337.723,58.899 338.391,58.899L340.595,58.899L344.601,60.902C344.869,61.437 345.136,61.904 345.403,62.305C345.67,62.705 345.87,63.173 346.004,63.707C346.137,64.241 346.271,64.709 346.405,65.109C346.538,65.51 346.738,65.978 347.006,66.512L347.006,129.818L345.804,146.246L346.204,163.475L343.8,168.683C343.266,168.951 342.732,169.284 342.197,169.685C341.663,170.086 341.062,170.353 340.394,170.486C339.727,170.62 339.059,170.687 338.391,170.687L336.187,170.687Z" style="fill:none;fill-rule:nonzero;stroke:rgb(236,39,39);stroke-width:7.5px;" class="naiRBkJe_16"></path>
            <path d="M393.198,211.155C392.664,210.888 392.13,210.687 391.596,210.554C391.061,210.42 390.527,210.287 389.993,210.153C389.459,210.02 388.991,209.752 388.591,209.352C388.19,208.951 387.722,208.617 387.188,208.35C386.654,207.549 386.12,206.814 385.586,206.146C385.051,205.479 384.717,204.677 384.584,203.742C384.45,202.807 384.317,201.939 384.183,201.138C384.05,200.337 383.983,199.402 383.983,198.333C384.25,197.799 384.45,197.332 384.584,196.931C384.717,196.53 384.851,196.063 384.985,195.529C385.118,194.994 385.318,194.527 385.586,194.126C385.853,193.726 386.12,193.258 386.387,192.724C387.188,192.19 387.99,191.655 388.791,191.121C389.592,190.587 390.46,190.253 391.395,190.119C392.33,189.986 393.332,189.919 394.4,189.919L397.606,189.919L402.815,192.323L402.815,193.125L403.616,193.125C404.15,193.926 404.618,194.66 405.018,195.328C405.419,195.996 405.753,196.731 406.02,197.532C406.287,198.333 406.421,199.268 406.421,200.337L406.421,203.141L404.417,207.148L403.616,207.148L403.616,207.949C402.815,208.484 402.08,208.951 401.412,209.352C400.744,209.752 399.943,210.086 399.008,210.353C398.073,210.621 397.205,210.821 396.404,210.954C395.602,211.088 394.534,211.155 393.198,211.155ZM392.397,170.687L388.39,168.683C388.123,168.149 387.789,167.682 387.389,167.281C386.988,166.88 386.788,166.346 386.788,165.678C386.788,165.011 386.654,164.41 386.387,163.875C386.12,163.341 385.986,162.807 385.986,162.273L386.387,147.848L385.986,144.242C386.253,143.174 386.454,141.905 386.587,140.436C386.721,138.967 386.788,137.565 386.788,136.229L386.788,132.222C386.788,130.887 386.921,129.685 387.188,128.616L387.188,68.114L386.788,66.512C387.055,65.978 387.255,65.51 387.389,65.109C387.522,64.709 387.656,64.241 387.789,63.707C387.923,63.173 388.123,62.705 388.39,62.305C388.657,61.904 388.924,61.437 389.192,60.902C389.726,60.635 390.26,60.301 390.794,59.901C391.329,59.5 391.93,59.233 392.597,59.099C393.265,58.966 393.933,58.899 394.601,58.899L396.804,58.899L400.811,60.902C401.078,61.437 401.345,61.904 401.612,62.305C401.88,62.705 402.08,63.173 402.213,63.707C402.347,64.241 402.481,64.709 402.614,65.109C402.748,65.51 402.948,65.978 403.215,66.512L403.215,129.818L402.013,146.246L402.414,163.475L400.01,168.683C399.476,168.951 398.941,169.284 398.407,169.685C397.873,170.086 397.272,170.353 396.604,170.486C395.936,170.62 395.268,170.687 394.601,170.687L392.397,170.687Z" style="fill:none;fill-rule:nonzero;stroke:rgb(236,39,39);stroke-width:7.5px;" class="naiRBkJe_17"></path>
        </g>
    </g>
<style data-made-with="vivus-instant">.naiRBkJe_0{stroke-dasharray:2129 2131;stroke-dashoffset:2130;animation:naiRBkJe_draw_0 21200ms linear 0ms infinite,naiRBkJe_fade 21200ms linear 0ms infinite;}.naiRBkJe_1{stroke-dasharray:2005 2007;stroke-dashoffset:2006;animation:naiRBkJe_draw_1 21200ms linear 0ms infinite,naiRBkJe_fade 21200ms linear 0ms infinite;}.naiRBkJe_2{stroke-dasharray:1466 1468;stroke-dashoffset:1467;animation:naiRBkJe_draw_2 21200ms linear 0ms infinite,naiRBkJe_fade 21200ms linear 0ms infinite;}.naiRBkJe_3{stroke-dasharray:1404 1406;stroke-dashoffset:1405;animation:naiRBkJe_draw_3 21200ms linear 0ms infinite,naiRBkJe_fade 21200ms linear 0ms infinite;}.naiRBkJe_4{stroke-dasharray:759 761;stroke-dashoffset:760;animation:naiRBkJe_draw_4 21200ms linear 0ms infinite,naiRBkJe_fade 21200ms linear 0ms infinite;}.naiRBkJe_5{stroke-dasharray:759 761;stroke-dashoffset:760;animation:naiRBkJe_draw_5 21200ms linear 0ms infinite,naiRBkJe_fade 21200ms linear 0ms infinite;}.naiRBkJe_6{stroke-dasharray:373 375;stroke-dashoffset:374;animation:naiRBkJe_draw_6 21200ms linear 0ms infinite,naiRBkJe_fade 21200ms linear 0ms infinite;}.naiRBkJe_7{stroke-dasharray:177 179;stroke-dashoffset:178;animation:naiRBkJe_draw_7 21200ms linear 0ms infinite,naiRBkJe_fade 21200ms linear 0ms infinite;}.naiRBkJe_8{stroke-dasharray:1942 1944;stroke-dashoffset:1943;animation:naiRBkJe_draw_8 21200ms linear 0ms infinite,naiRBkJe_fade 21200ms linear 0ms infinite;}.naiRBkJe_9{stroke-dasharray:1144 1146;stroke-dashoffset:1145;animation:naiRBkJe_draw_9 21200ms linear 0ms infinite,naiRBkJe_fade 21200ms linear 0ms infinite;}.naiRBkJe_10{stroke-dasharray:985 987;stroke-dashoffset:986;animation:naiRBkJe_draw_10 21200ms linear 0ms infinite,naiRBkJe_fade 21200ms linear 0ms infinite;}.naiRBkJe_11{stroke-dasharray:938 940;stroke-dashoffset:939;animation:naiRBkJe_draw_11 21200ms linear 0ms infinite,naiRBkJe_fade 21200ms linear 0ms infinite;}.naiRBkJe_12{stroke-dasharray:874 876;stroke-dashoffset:875;animation:naiRBkJe_draw_12 21200ms linear 0ms infinite,naiRBkJe_fade 21200ms linear 0ms infinite;}.naiRBkJe_13{stroke-dasharray:744 746;stroke-dashoffset:745;animation:naiRBkJe_draw_13 21200ms linear 0ms infinite,naiRBkJe_fade 21200ms linear 0ms infinite;}.naiRBkJe_14{stroke-dasharray:593 595;stroke-dashoffset:594;animation:naiRBkJe_draw_14 21200ms linear 0ms infinite,naiRBkJe_fade 21200ms linear 0ms infinite;}.naiRBkJe_15{stroke-dasharray:516 518;stroke-dashoffset:517;animation:naiRBkJe_draw_15 21200ms linear 0ms infinite,naiRBkJe_fade 21200ms linear 0ms infinite;}.naiRBkJe_16{stroke-dasharray:314 316;stroke-dashoffset:315;animation:naiRBkJe_draw_16 21200ms linear 0ms infinite,naiRBkJe_fade 21200ms linear 0ms infinite;}.naiRBkJe_17{stroke-dasharray:314 316;stroke-dashoffset:315;animation:naiRBkJe_draw_17 21200ms linear 0ms infinite,naiRBkJe_fade 21200ms linear 0ms infinite;}@keyframes naiRBkJe_draw{100%{stroke-dashoffset:0;}}@keyframes naiRBkJe_fade{0%{stroke-opacity:1;}98.11320754716981%{stroke-opacity:1;}100%{stroke-opacity:0;}}@keyframes naiRBkJe_draw_0{3.7735849056603774%{stroke-dashoffset: 2130}9.529955829987612%{ stroke-dashoffset: 0;}100%{ stroke-dashoffset: 0;}}@keyframes naiRBkJe_draw_1{9.529955829987612%{stroke-dashoffset: 2006}14.951214080785935%{ stroke-dashoffset: 0;}100%{ stroke-dashoffset: 0;}}@keyframes naiRBkJe_draw_2{14.951214080785935%{stroke-dashoffset: 1467}18.91581321035779%{ stroke-dashoffset: 0;}100%{ stroke-dashoffset: 0;}}@keyframes naiRBkJe_draw_3{18.915813210357793%{stroke-dashoffset: 1405}22.712856003165193%{ stroke-dashoffset: 0;}100%{ stroke-dashoffset: 0;}}@keyframes naiRBkJe_draw_4{22.712856003165193%{stroke-dashoffset: 760}24.766772389310123%{ stroke-dashoffset: 0;}100%{ stroke-dashoffset: 0;}}@keyframes naiRBkJe_draw_5{24.766772389310123%{stroke-dashoffset: 760}26.820688775455054%{ stroke-dashoffset: 0;}100%{ stroke-dashoffset: 0;}}@keyframes naiRBkJe_draw_6{26.820688775455054%{stroke-dashoffset: 374}27.831431839163212%{ stroke-dashoffset: 0;}100%{ stroke-dashoffset: 0;}}@keyframes naiRBkJe_draw_7{27.83143183916322%{stroke-dashoffset: 178}28.312480676970846%{ stroke-dashoffset: 0;}100%{ stroke-dashoffset: 0;}}@keyframes naiRBkJe_draw_8{28.312480676970843%{stroke-dashoffset: 1943}33.56348006944399%{ stroke-dashoffset: 0;}100%{ stroke-dashoffset: 0;}}@keyframes naiRBkJe_draw_9{33.56348006944399%{stroke-dashoffset: 1145}36.65786725646497%{ stroke-dashoffset: 0;}100%{ stroke-dashoffset: 0;}}@keyframes naiRBkJe_draw_10{36.65786725646497%{stroke-dashoffset: 986}39.32255351533194%{ stroke-dashoffset: 0;}100%{ stroke-dashoffset: 0;}}@keyframes naiRBkJe_draw_11{39.32255351533195%{stroke-dashoffset: 939}41.86022126084522%{ stroke-dashoffset: 0;}100%{ stroke-dashoffset: 0;}}@keyframes naiRBkJe_draw_12{41.86022126084522%{stroke-dashoffset: 875}44.224927626472606%{ stroke-dashoffset: 0;}100%{ stroke-dashoffset: 0;}}@keyframes naiRBkJe_draw_13{44.224927626472606%{stroke-dashoffset: 745}46.23830618920678%{ stroke-dashoffset: 0;}100%{ stroke-dashoffset: 0;}}@keyframes naiRBkJe_draw_14{46.23830618920678%{stroke-dashoffset: 594}47.843603996272684%{ stroke-dashoffset: 0;}100%{ stroke-dashoffset: 0;}}@keyframes naiRBkJe_draw_15{47.843603996272684%{stroke-dashoffset: 517}49.24080764316337%{ stroke-dashoffset: 0;}100%{ stroke-dashoffset: 0;}}@keyframes naiRBkJe_draw_16{49.24080764316338%{stroke-dashoffset: 315}50.092101934789234%{ stroke-dashoffset: 0;}100%{ stroke-dashoffset: 0;}}@keyframes naiRBkJe_draw_17{50.092101934789234%{stroke-dashoffset: 315}50.943396226415096%{ stroke-dashoffset: 0;}100%{ stroke-dashoffset: 0;}}</style></svg>
