<!--?xml version="1.0" encoding="UTF-8" standalone="no"?-->

<svg width="100%" height="100%" viewBox="0 0 930 711" version="1.1" xmlns="http://www.w3.org/2000/svg" xmlns:xlink="http://www.w3.org/1999/xlink" xml:space="preserve" xmlns:serif="http://www.serif.com/" style="fill-rule: evenodd; clip-rule: evenodd; stroke-linecap: round; stroke-linejoin: round; stroke-miterlimit: 1.5;" class="">
    <g transform="matrix(1,0,0,1,-98.2464,-910.341)">
        <g>
            <path id="ケーキ" d="M309.643,1474.65C309.643,1474.65 313.51,1500.28 322.325,1504.94C331.14,1509.59 470.551,1526.06 562.5,1526.06C654.449,1526.06 802.828,1527.67 817.718,1504.94C832.607,1482.2 819.204,1464.08 819.204,1464.08C819.204,1464.08 635.607,1475.89 562.5,1474.65C489.393,1473.4 306.594,1457.97 306.594,1457.97C306.594,1457.5 298.132,1421.56 298.132,1421.56L562.5,1438.61L821.81,1428.07L819.242,1392.61C819.242,1392.61 800.486,1409.01 766.882,1407.89C733.278,1406.77 738.327,1365.37 707.141,1370.63C675.955,1375.9 679.544,1405.51 651.681,1407.89C623.818,1410.26 608.993,1368.31 588.071,1370.63C567.149,1372.96 547.076,1405.23 521.688,1407.89C496.3,1410.55 492.336,1370.63 457.969,1370.63C423.601,1370.63 393.472,1408.4 368.767,1407.89C344.062,1407.38 235.555,1380.85 236.095,1218C236.636,1055.15 363.665,966.498 562.5,966.498C761.335,966.498 900.957,1062.21 900.957,1218C900.957,1313.15 860.289,1348.96 860.289,1348.96" style="fill:none;stroke:rgb(101,101,101);stroke-width:4.5px;" class="UxIdoHpx_0"></path>
            <path id="ケーキ1" serif:id="ケーキ" d="M860.289,1348.96C860.289,1348.96 918.082,1329.5 884.402,1407.89C884.402,1407.89 936.306,1409.35 884.402,1457.97C884.402,1457.97 934.67,1517.68 872.886,1526.06C872.886,1526.06 882.358,1581.33 806.569,1565.71C806.569,1565.71 810.281,1618.03 720.017,1586.29C720.017,1586.29 666.662,1637.07 637.06,1586.29C637.06,1586.29 582.889,1659.12 537.309,1586.29C537.309,1586.29 498.632,1638.26 447.686,1585.48C447.686,1585.48 382.099,1643.84 344.92,1561.19C344.92,1561.19 277.825,1612.7 267.504,1520.75C267.504,1520.75 185.746,1519.96 240.443,1452.75C240.443,1452.75 177.302,1436.86 247.753,1388.65C247.753,1388.65 217.492,1323.87 267.504,1343.88" style="fill:none;stroke:rgb(101,101,101);stroke-width:4.5px;" class="UxIdoHpx_1"></path>
            <path d="M446.782,1057.04C446.782,1057.04 462.862,1039.77 462.143,1057.04C461.424,1074.31 450.473,1121.32 450.473,1121.32" style="fill:none;stroke:rgb(101,101,101);stroke-width:4.5px;" class="UxIdoHpx_2"></path>
            <path d="M496.628,1042.98L492.307,1052.56C492.307,1052.56 476.222,1086.63 488.192,1112.51C488.192,1112.51 489.524,1070.31 462.166,1073.62C447.129,1075.43 451.207,1087.6 457.865,1090.93C464.524,1094.27 497.665,1101.16 503.328,1085.34C508.991,1069.52 519.998,1081.44 520.032,1081.64C520.067,1081.84 502.932,1064.44 499.199,1102.07C497.425,1119.95 521.687,1112.3 528.301,1085.34C528.301,1085.34 518.213,1108.9 528.301,1108.84C538.388,1108.78 548.038,1085.69 550.274,1073.62C550.274,1073.62 532.529,1126.29 534.195,1143.43C534.195,1143.43 541.218,1068.73 562.5,1076.93C583.782,1085.12 559.922,1108.49 547.776,1106.54C547.776,1106.54 583.118,1111.24 590.292,1073.62C590.292,1073.62 571.204,1127.17 570.847,1137.76C570.491,1148.35 580.515,1066.83 602.507,1076.93C624.499,1087.03 599.027,1106.19 583.965,1103.32C583.965,1103.32 605.37,1107.99 617.357,1090.93C629.344,1073.88 627.147,1071.45 631.869,1069.98C631.869,1069.98 616.2,1104.96 631.869,1102.07C642.581,1100.1 652.714,1073.05 656.393,1066.66C656.393,1066.66 636.743,1122.21 635.32,1128.12C633.897,1134.02 628.005,1138.04 624.892,1137.76C621.78,1137.48 619.849,1126.16 651.702,1095.73C683.555,1065.3 693.73,1068.53 701.316,1076.93" style="fill:none;stroke:rgb(101,101,101);stroke-width:4.5px;" class="UxIdoHpx_3"></path>
            <path d="M389.763,1161.29L407.899,1143.43C407.899,1143.43 404.587,1190.85 377.885,1218C377.885,1218 395.782,1202.21 406.05,1156.73C406.05,1156.73 415.739,1150.26 421.91,1151.48C441.88,1155.42 409.347,1193.02 395.551,1181.73M395.551,1181.73C395.551,1181.73 403.755,1174.55 421.91,1188.2C440.065,1201.86 401.78,1238.08 398.818,1202.36C398.818,1202.36 413.195,1219.02 430.684,1211.4C448.173,1203.79 452.627,1182.06 447.951,1175.38C443.274,1168.7 461.326,1174.21 457.155,1176.32C452.985,1178.43 445.916,1187.93 450.161,1199.12C452.7,1205.81 450.456,1210.9 462.166,1209.02C473.877,1207.14 481.11,1171.78 481.376,1170.97C481.642,1170.16 477.902,1184.07 477.902,1184.07C477.902,1184.07 486.92,1185.95 487.49,1188.2C488.06,1190.46 490.097,1206.38 497.209,1206.36C512.518,1206.3 515.508,1167.36 515.557,1166.02C515.606,1164.67 509.88,1199.11 511.901,1202.36C513.923,1205.61 516.777,1207.34 521.254,1204.23C525.731,1201.13 565.426,1142.3 556.425,1137.76C547.425,1133.23 541.953,1196.52 538.695,1204.23C538.695,1204.23 546.19,1166.56 560.949,1172.93C566.231,1175.21 560.928,1197.82 562.5,1199.12C564.072,1200.41 569.179,1201.89 571.488,1199.12C573.798,1196.34 586.855,1162.84 600.101,1175.38C600.101,1175.38 586.679,1160.76 576.598,1199.12C576.598,1199.12 582.266,1208.72 594.271,1199.12C599.797,1194.69 619.159,1137.76 619.159,1137.76L601.805,1184.58C601.805,1184.58 603.157,1197.65 611.316,1196.95C619.476,1196.26 626.619,1177.59 626.619,1177.59C626.619,1177.59 633.74,1164.23 642.824,1172.05C642.824,1172.05 632.758,1160.92 623.385,1184.58C620.36,1192.22 622.34,1200.64 629.708,1199.12C637.077,1197.59 644.584,1196.03 650.905,1167.79C650.905,1167.79 640.065,1198.72 650.488,1194.99C660.91,1191.26 673.268,1166.23 678.004,1161.18C682.74,1156.12 657.012,1193.5 672.273,1192.53C687.533,1191.55 702.556,1162.72 705.777,1161.18C705.777,1161.18 692.906,1180.51 688.158,1194.99C683.411,1209.48 667.783,1236.45 662.238,1230.96C656.693,1225.48 670.778,1209.01 688.158,1194.99C705.539,1180.97 751.452,1155.5 757.236,1172.05" style="fill:none;stroke:rgb(101,101,101);stroke-width:4.5px;" class="UxIdoHpx_4"></path>
            <path d="M500.682,1177.59C500.682,1177.59 517.114,1178.98 526.255,1177.59" style="fill:none;stroke:rgb(101,101,101);stroke-width:4.5px;" class="UxIdoHpx_5"></path>
            <path d="M379.885,964.287C413.864,960.471 425.766,1042.98 404.946,1042.98C384.125,1042.98 372.044,1041.48 355.91,1042.98C339.777,1044.48 357.338,966.82 379.885,964.287Z" style="fill:white;stroke:rgb(101,101,101);stroke-width:4.5px;" class="UxIdoHpx_6"></path>
            <g transform="matrix(1,0,0,1,154.238,-18.4023)">
                <path d="M379.885,964.287C413.864,960.471 425.766,1042.98 404.946,1042.98C384.125,1042.98 372.044,1041.48 355.91,1042.98C339.777,1044.48 357.338,966.82 379.885,964.287Z" style="fill:white;stroke:rgb(101,101,101);stroke-width:4.5px;" class="UxIdoHpx_7"></path>
            </g>
            <g transform="matrix(1,0,0,1,322.55,-7.00256)">
                <path d="M379.885,964.287C413.864,960.471 425.766,1042.98 404.946,1042.98C384.125,1042.98 372.044,1041.48 355.91,1042.98C339.777,1044.48 357.338,966.82 379.885,964.287Z" style="fill:white;stroke:rgb(101,101,101);stroke-width:4.5px;" class="UxIdoHpx_8"></path>
            </g>
            <g transform="matrix(1,0,0,1,444.273,137.218)">
                <path d="M379.885,964.287C413.864,960.471 425.766,1042.98 404.946,1042.98C384.125,1042.98 372.044,1041.48 355.91,1042.98C339.777,1044.48 357.338,966.82 379.885,964.287Z" style="fill:none;stroke:rgb(101,101,101);stroke-width:4.5px;" class="UxIdoHpx_9"></path>
            </g>
            <g transform="matrix(1,0,0,1,390.834,273.959)">
                <path d="M379.885,964.287C413.864,960.471 425.766,1042.98 404.946,1042.98C384.125,1042.98 372.044,1041.48 355.91,1042.98C339.777,1044.48 357.338,966.82 379.885,964.287Z" style="fill:none;stroke:rgb(101,101,101);stroke-width:4.5px;" class="UxIdoHpx_10"></path>
            </g>
            <g transform="matrix(1,0,0,1,266.296,283.959)">
                <path d="M379.885,964.287C413.864,960.471 425.766,1042.98 404.946,1042.98C384.125,1042.98 372.044,1041.48 355.91,1042.98C339.777,1044.48 357.338,966.82 379.885,964.287Z" style="fill:none;stroke:rgb(101,101,101);stroke-width:4.5px;" class="UxIdoHpx_11"></path>
            </g>
            <g transform="matrix(1,0,0,1,113.071,290.689)">
                <path d="M379.885,964.287C413.864,960.471 425.766,1042.98 404.946,1042.98C384.125,1042.98 372.044,1041.48 355.91,1042.98C339.777,1044.48 357.338,966.82 379.885,964.287Z" style="fill:none;stroke:rgb(101,101,101);stroke-width:4.5px;" class="UxIdoHpx_12"></path>
            </g>
            <g transform="matrix(1,0,0,1,-14.9551,276.234)">
                <path d="M379.885,964.287C413.864,960.471 425.766,1042.98 404.946,1042.98C384.125,1042.98 372.044,1041.48 355.91,1042.98C339.777,1044.48 357.338,966.82 379.885,964.287Z" style="fill:none;stroke:rgb(101,101,101);stroke-width:4.5px;" class="UxIdoHpx_13"></path>
            </g>
            <g transform="matrix(1,0,0,1,-76.209,141.906)">
                <path d="M379.885,964.287C413.864,960.471 425.766,1042.98 404.946,1042.98C384.125,1042.98 372.044,1041.48 355.91,1042.98C339.777,1044.48 357.338,966.82 379.885,964.287Z" style="fill:none;stroke:rgb(101,101,101);stroke-width:4.5px;" class="UxIdoHpx_14"></path>
            </g>
            <g transform="matrix(1,0,0,1,0,1)">
                <path d="M334.738,1483.29C334.738,1483.29 560.964,1517.69 799.436,1488.63" style="fill:none;stroke:rgb(208,133,63);stroke-opacity:0.3;stroke-width:45px;" class="UxIdoHpx_15"></path>
            </g>
            <path d="M304.924,1405.93C304.924,1405.93 340.036,1416.47 369.898,1416.47C399.76,1416.47 436.72,1399.47 453.095,1398.69C469.469,1397.91 493.804,1429.58 513.123,1425.79C532.442,1421.99 560.145,1409.11 586.463,1405.93C612.78,1402.76 625.167,1427.2 647.537,1425.79C669.907,1424.37 698.096,1396.88 709.515,1398.69C720.934,1400.51 744.797,1432.37 799.436,1416.47" style="fill:none;stroke:rgb(208,133,63);stroke-opacity:0.3;stroke-width:28.5px;" class="UxIdoHpx_16"></path>
            <g transform="matrix(1,0,0,1,-369.445,-274.025)">
                <path d="M761.111,1300.34C778.281,1295.47 753.284,1257.32 753.284,1257.32C753.284,1257.32 717.214,1312.79 761.111,1300.34Z" style="fill:none;stroke:rgb(208,63,63);stroke-opacity:0.3;stroke-width:33px;" class="UxIdoHpx_17"></path>
            </g>
            <g transform="matrix(1,0,0,1,-217.338,-293.622)">
                <path d="M761.111,1300.34C778.281,1295.47 753.284,1257.32 753.284,1257.32C753.284,1257.32 717.214,1312.79 761.111,1300.34Z" style="fill:none;stroke:rgb(208,63,63);stroke-opacity:0.3;stroke-width:33px;" class="UxIdoHpx_18"></path>
            </g>
            <g transform="matrix(1,0,0,1,-47.4412,-283.606)">
                <path d="M761.111,1300.34C778.281,1295.47 753.284,1257.32 753.284,1257.32C753.284,1257.32 717.214,1312.79 761.111,1300.34Z" style="fill:none;stroke:rgb(208,63,63);stroke-opacity:0.3;stroke-width:33px;" class="UxIdoHpx_19"></path>
            </g>
            <g transform="matrix(1,0,0,1,73.4876,-135.008)">
                <path d="M761.111,1300.34C778.281,1295.47 753.284,1257.32 753.284,1257.32C753.284,1257.32 717.214,1312.79 761.111,1300.34Z" style="fill:none;stroke:rgb(208,63,63);stroke-opacity:0.3;stroke-width:33px;" class="UxIdoHpx_20"></path>
            </g>
            <g transform="matrix(1,0,0,1,20.3721,-3.63691)">
                <path d="M761.111,1300.34C778.281,1295.47 753.284,1257.32 753.284,1257.32C753.284,1257.32 717.214,1312.79 761.111,1300.34Z" style="fill:none;stroke:rgb(208,63,63);stroke-opacity:0.3;stroke-width:33px;" class="UxIdoHpx_21"></path>
            </g>
            <g transform="matrix(1,0,0,1,-103.115,9.78174)">
                <path d="M761.111,1300.34C778.281,1295.47 753.284,1257.32 753.284,1257.32C753.284,1257.32 717.214,1312.79 761.111,1300.34Z" style="fill:none;stroke:rgb(208,63,63);stroke-opacity:0.3;stroke-width:33px;" class="UxIdoHpx_22"></path>
            </g>
            <g transform="matrix(1,0,0,1,-256.468,18.5304)">
                <path d="M761.111,1300.34C778.281,1295.47 753.284,1257.32 753.284,1257.32C753.284,1257.32 717.214,1312.79 761.111,1300.34Z" style="fill:none;stroke:rgb(208,63,63);stroke-opacity:0.3;stroke-width:33px;" class="UxIdoHpx_23"></path>
            </g>
            <g transform="matrix(1,0,0,1,-383.052,1.08536)">
                <path d="M761.111,1300.34C778.281,1295.47 753.284,1257.32 753.284,1257.32C753.284,1257.32 717.214,1312.79 761.111,1300.34Z" style="fill:none;stroke:rgb(208,63,63);stroke-opacity:0.3;stroke-width:33px;" class="UxIdoHpx_24"></path>
            </g>
            <g transform="matrix(1,0,0,1,-445.616,-133.455)">
                <path d="M761.111,1300.34C778.281,1295.47 753.284,1257.32 753.284,1257.32C753.284,1257.32 717.214,1312.79 761.111,1300.34Z" style="fill:none;stroke:rgb(208,63,63);stroke-opacity:0.3;stroke-width:33px;" class="UxIdoHpx_25"></path>
            </g>
            <path d="M214.427,929.841C214.427,929.841 247.059,943.342 283.372,998.786" style="fill:none;stroke:rgb(241,252,92);stroke-opacity:0.5;stroke-width:39px;" class="UxIdoHpx_26"></path>
            <g transform="matrix(1,0,0,1,15.8673,-65.5591)">
                <path d="M101.879,1081.86C101.879,1081.86 187.523,1111.18 198.56,1123.63" style="fill:none;stroke:rgb(241,252,92);stroke-opacity:0.5;stroke-width:39px;" class="UxIdoHpx_27"></path>
            </g>
            <path d="M953.578,929.841C953.578,929.841 884.798,977.892 869.591,1006.33" style="fill:none;stroke:rgb(241,252,92);stroke-opacity:0.5;stroke-width:39px;" class="UxIdoHpx_28"></path>
            <g transform="matrix(1,0,0,1,3.36781,9.35008)">
                <path d="M1004.68,1027.84C1004.68,1027.84 928.667,1051.09 920.599,1072.51" style="fill:none;stroke:rgb(241,252,92);stroke-opacity:0.5;stroke-width:39px;" class="UxIdoHpx_29"></path>
            </g>
        </g>
    </g>
<style data-made-with="vivus-instant">.UxIdoHpx_0{stroke-dasharray:3550 3552;stroke-dashoffset:3551;}.start .UxIdoHpx_0{animation:UxIdoHpx_draw 2860ms linear 0ms forwards;}.UxIdoHpx_1{stroke-dasharray:1293 1295;stroke-dashoffset:1294;}.start .UxIdoHpx_1{animation:UxIdoHpx_draw 1042ms linear 2860ms forwards;}.UxIdoHpx_2{stroke-dasharray:90 92;stroke-dashoffset:91;}.start .UxIdoHpx_2{animation:UxIdoHpx_draw 73ms linear 3903ms forwards;}.UxIdoHpx_3{stroke-dasharray:1171 1173;stroke-dashoffset:1172;}.start .UxIdoHpx_3{animation:UxIdoHpx_draw 944ms linear 3976ms forwards;}.UxIdoHpx_4{stroke-dasharray:1633 1635;stroke-dashoffset:1634;}.start .UxIdoHpx_4{animation:UxIdoHpx_draw 1316ms linear 4920ms forwards;}.UxIdoHpx_5{stroke-dasharray:26 28;stroke-dashoffset:27;}.start .UxIdoHpx_5{animation:UxIdoHpx_draw 21ms linear 6237ms forwards;}.UxIdoHpx_6{stroke-dasharray:242 244;stroke-dashoffset:243;}.start .UxIdoHpx_6{animation:UxIdoHpx_draw 195ms linear 6258ms forwards;}.UxIdoHpx_7{stroke-dasharray:242 244;stroke-dashoffset:243;}.start .UxIdoHpx_7{animation:UxIdoHpx_draw 195ms linear 6454ms forwards;}.UxIdoHpx_8{stroke-dasharray:242 244;stroke-dashoffset:243;}.start .UxIdoHpx_8{animation:UxIdoHpx_draw 195ms linear 6650ms forwards;}.UxIdoHpx_9{stroke-dasharray:242 244;stroke-dashoffset:243;}.start .UxIdoHpx_9{animation:UxIdoHpx_draw 195ms linear 6846ms forwards;}.UxIdoHpx_10{stroke-dasharray:242 244;stroke-dashoffset:243;}.start .UxIdoHpx_10{animation:UxIdoHpx_draw 195ms linear 7041ms forwards;}.UxIdoHpx_11{stroke-dasharray:242 244;stroke-dashoffset:243;}.start .UxIdoHpx_11{animation:UxIdoHpx_draw 195ms linear 7237ms forwards;}.UxIdoHpx_12{stroke-dasharray:242 244;stroke-dashoffset:243;}.start .UxIdoHpx_12{animation:UxIdoHpx_draw 195ms linear 7433ms forwards;}.UxIdoHpx_13{stroke-dasharray:242 244;stroke-dashoffset:243;}.start .UxIdoHpx_13{animation:UxIdoHpx_draw 195ms linear 7629ms forwards;}.UxIdoHpx_14{stroke-dasharray:242 244;stroke-dashoffset:243;}.start .UxIdoHpx_14{animation:UxIdoHpx_draw 195ms linear 7824ms forwards;}.UxIdoHpx_15{stroke-dasharray:466 468;stroke-dashoffset:467;}.start .UxIdoHpx_15{animation:UxIdoHpx_draw 376ms linear 8020ms forwards;}.UxIdoHpx_16{stroke-dasharray:524 526;stroke-dashoffset:525;}.start .UxIdoHpx_16{animation:UxIdoHpx_draw 422ms linear 8396ms forwards;}.UxIdoHpx_17{stroke-dasharray:115 117;stroke-dashoffset:116;}.start .UxIdoHpx_17{animation:UxIdoHpx_draw 93ms linear 8819ms forwards;}.UxIdoHpx_18{stroke-dasharray:115 117;stroke-dashoffset:116;}.start .UxIdoHpx_18{animation:UxIdoHpx_draw 93ms linear 8913ms forwards;}.UxIdoHpx_19{stroke-dasharray:115 117;stroke-dashoffset:116;}.start .UxIdoHpx_19{animation:UxIdoHpx_draw 93ms linear 9006ms forwards;}.UxIdoHpx_20{stroke-dasharray:115 117;stroke-dashoffset:116;}.start .UxIdoHpx_20{animation:UxIdoHpx_draw 93ms linear 9100ms forwards;}.UxIdoHpx_21{stroke-dasharray:115 117;stroke-dashoffset:116;}.start .UxIdoHpx_21{animation:UxIdoHpx_draw 93ms linear 9193ms forwards;}.UxIdoHpx_22{stroke-dasharray:115 117;stroke-dashoffset:116;}.start .UxIdoHpx_22{animation:UxIdoHpx_draw 93ms linear 9287ms forwards;}.UxIdoHpx_23{stroke-dasharray:115 117;stroke-dashoffset:116;}.start .UxIdoHpx_23{animation:UxIdoHpx_draw 93ms linear 9380ms forwards;}.UxIdoHpx_24{stroke-dasharray:115 117;stroke-dashoffset:116;}.start .UxIdoHpx_24{animation:UxIdoHpx_draw 93ms linear 9473ms forwards;}.UxIdoHpx_25{stroke-dasharray:115 117;stroke-dashoffset:116;}.start .UxIdoHpx_25{animation:UxIdoHpx_draw 93ms linear 9567ms forwards;}.UxIdoHpx_26{stroke-dasharray:99 101;stroke-dashoffset:100;}.start .UxIdoHpx_26{animation:UxIdoHpx_draw 80ms linear 9660ms forwards;}.UxIdoHpx_27{stroke-dasharray:106 108;stroke-dashoffset:107;}.start .UxIdoHpx_27{animation:UxIdoHpx_draw 86ms linear 9741ms forwards;}.UxIdoHpx_28{stroke-dasharray:115 117;stroke-dashoffset:116;}.start .UxIdoHpx_28{animation:UxIdoHpx_draw 93ms linear 9827ms forwards;}.UxIdoHpx_29{stroke-dasharray:97 99;stroke-dashoffset:98;}.start .UxIdoHpx_29{animation:UxIdoHpx_draw 78ms linear 9921ms forwards;}@keyframes UxIdoHpx_draw{100%{stroke-dashoffset:0;}}@keyframes UxIdoHpx_fade{0%{stroke-opacity:1;}97.01492537313433%{stroke-opacity:1;}100%{stroke-opacity:0;}}</style></svg>
