<!--?xml version="1.0" encoding="UTF-8" standalone="no"?-->

<svg width="100%" height="100%" viewBox="0 0 640 1136" version="1.1" xmlns="http://www.w3.org/2000/svg" xmlns:xlink="http://www.w3.org/1999/xlink" xml:space="preserve" xmlns:serif="http://www.serif.com/" style="fill-rule: evenodd; clip-rule: evenodd; stroke-linejoin: round; stroke-miterlimit: 2;">
    <path id="アートボード1" width="640" height="1136" style="fill:none;" d="M0 0 L640 0 L640 1136 L0 1136 Z" class="tnHQQjAz_0"></path>
    <g id="アートボード11" serif:id="アートボード1">
        <g transform="matrix(0.275964,0,0,0.275964,-84.9281,99.9023)">
            <path d="M436.044,577.791L426.365,572.952C425.074,571.016 423.945,569.08 422.977,567.144C422.009,565.208 421.364,563.111 421.041,560.852C420.718,558.594 420.557,556.174 420.557,553.593L420.557,545.849C421.848,525.845 423.3,506.003 424.913,486.321C426.526,466.64 427.494,446.797 427.817,426.793C428.139,406.789 428.462,386.785 428.785,366.781C429.107,346.777 430.236,326.773 432.172,306.769L419.589,306.769L381.84,307.737C380.549,307.092 379.42,306.608 378.452,306.285C377.484,305.963 376.355,305.64 375.064,305.317C373.774,304.995 372.644,304.511 371.676,303.865C370.708,303.22 369.579,302.575 368.289,301.93C367.643,300.639 366.837,299.348 365.869,298.058C364.901,296.767 364.256,295.315 363.933,293.702C363.61,292.089 363.449,290.637 363.449,289.346L363.449,284.507L368.289,274.827C372.806,271.601 377.968,269.988 383.776,269.988L401.198,269.988C407.006,269.988 412.652,269.826 418.137,269.504C423.622,269.181 429.269,269.02 435.076,269.02C435.076,263.212 435.399,257.405 436.044,251.597C436.689,245.789 437.496,240.143 438.464,234.658C439.432,229.173 440.077,223.527 440.4,217.719C440.722,211.912 442.82,206.749 446.691,202.232C447.982,201.587 449.273,200.78 450.563,199.812C451.854,198.844 453.306,198.199 454.919,197.876C456.532,197.554 457.984,197.392 459.275,197.392L464.114,197.392L473.794,202.232C474.439,203.523 475.245,204.813 476.213,206.104C477.181,207.394 477.827,208.846 478.149,210.46C478.472,212.073 478.633,213.686 478.633,215.299L478.633,220.623L474.762,243.853C474.116,247.725 473.632,251.597 473.31,255.469C472.987,259.34 472.826,263.535 472.826,268.052C477.988,269.342 483.473,269.988 489.281,269.988L541.549,269.988L604.465,268.052L614.144,272.891C614.79,274.182 615.596,275.473 616.564,276.763C617.532,278.054 618.177,279.506 618.5,281.119C618.823,282.732 618.984,284.345 618.984,285.959L618.984,291.282L614.144,300.962C604.465,304.833 594.14,306.769 583.17,306.769C572.2,306.769 561.23,306.931 550.261,307.253C539.291,307.576 528.321,307.737 517.351,307.737L484.441,307.737L469.922,305.801C467.341,327.741 466.211,350.165 466.534,373.073C466.857,395.981 466.534,418.566 465.566,440.828C464.598,463.091 463.308,485.353 461.694,507.616C460.081,529.878 457.339,551.657 453.467,572.952C452.176,573.597 450.886,574.404 449.595,575.371C448.305,576.339 446.853,576.985 445.239,577.307C443.626,577.63 442.174,577.791 440.884,577.791L436.044,577.791ZM611.24,563.272C605.433,561.982 599.464,561.014 593.334,560.368C587.203,559.723 581.396,558.594 575.911,556.981C570.426,555.367 564.78,554.077 558.972,553.109C553.164,552.141 547.679,550.044 542.517,546.817C541.872,545.527 540.904,544.236 539.613,542.946C538.323,541.655 537.516,540.203 537.193,538.59C536.871,536.977 536.709,535.525 536.709,534.234L536.709,529.395L542.517,519.715C543.808,519.07 545.26,518.263 546.873,517.295C548.486,516.327 550.261,515.682 552.196,515.359C554.132,515.037 556.068,514.875 558.004,514.875L563.812,514.875C570.91,516.811 578.169,518.747 585.59,520.683C593.011,522.619 600.755,524.071 608.821,525.039C616.887,526.007 624.953,526.329 633.019,526.007C641.085,525.684 649.313,525.523 657.701,525.523C660.283,524.877 662.864,524.394 665.445,524.071C668.026,523.748 670.446,523.426 672.704,523.103C674.963,522.78 677.544,522.619 680.448,522.619L688.675,522.619L698.355,527.459C699,528.749 699.807,530.04 700.775,531.33C701.743,532.621 702.388,534.073 702.71,535.686C703.033,537.299 703.194,538.751 703.194,540.042L703.194,544.881L698.355,554.561C691.902,557.787 685.126,559.884 678.028,560.852C670.93,561.82 663.67,562.627 656.25,563.272C648.829,563.918 641.408,564.079 633.987,563.756C626.566,563.434 618.984,563.272 611.24,563.272ZM676.092,413.242C668.994,410.016 661.573,407.112 653.83,404.531C646.086,401.95 638.02,400.175 629.631,399.207C621.243,398.239 612.692,397.755 603.981,397.755L578.331,397.755L560.908,400.659L551.228,395.819C550.583,394.529 549.777,393.077 548.809,391.464C547.841,389.85 547.195,388.237 546.873,386.624C546.55,385.011 546.389,383.559 546.389,382.268L546.389,377.429L551.228,367.749C555.746,364.523 560.747,362.264 566.231,360.974C571.716,359.683 577.524,359.038 583.654,359.038L619.952,359.038C626.405,360.328 632.858,361.296 639.311,361.942C645.764,362.587 651.894,363.555 657.701,364.845C663.509,366.136 669.317,367.911 675.124,370.169C680.932,372.428 686.417,375.493 691.579,379.364C692.224,380.655 693.031,381.946 693.999,383.236C694.967,384.527 695.612,386.14 695.935,388.076C696.258,390.012 696.419,391.625 696.419,392.916L696.419,397.755L691.579,407.435C690.289,408.08 689.159,408.886 688.191,409.854C687.223,410.822 685.933,411.468 684.32,411.79C682.706,412.113 681.255,412.274 679.964,412.274C678.673,412.274 677.383,412.597 676.092,413.242Z" style="fill:none;fill-rule:nonzero;stroke:rgb(73,73,73);stroke-width:14.49px;" class="tnHQQjAz_1"></path>
            <path d="M964.39,572.952L954.711,568.112C954.065,566.821 953.259,565.531 952.291,564.24C951.323,562.95 950.516,561.498 949.871,559.884C949.226,558.271 948.903,556.658 948.903,555.045L948.903,549.721C950.194,539.397 951.484,528.911 952.775,518.263C954.065,507.616 955.679,497.13 957.614,486.805C959.55,476.481 960.68,465.833 961.002,454.863C961.325,443.894 961.486,432.924 961.486,421.954C961.486,416.791 961.002,411.79 960.034,406.951C959.066,402.111 957.937,397.271 956.647,392.432C955.356,387.592 953.581,383.236 951.323,379.364C949.064,375.493 945.999,371.621 942.127,367.749C936.965,364.523 931.641,361.296 926.157,358.07C920.672,354.843 915.025,352.101 909.218,349.842C903.41,347.584 897.28,346.132 890.827,345.487C884.374,344.841 877.921,344.841 871.468,345.487C868.242,362.91 864.693,380.494 860.821,398.239C856.949,415.985 853.239,433.408 849.69,450.508C846.14,467.608 842.753,484.869 839.526,502.292C836.3,519.715 831.783,536.815 825.975,553.593C824.685,554.238 823.394,555.045 822.103,556.013C820.813,556.981 819.361,557.626 817.748,557.949C816.134,558.271 814.683,558.433 813.392,558.433L808.552,558.433L798.873,553.593C798.228,552.302 797.421,551.012 796.453,549.721C795.485,548.431 794.84,547.14 794.517,545.849C794.195,544.559 793.872,543.107 793.549,541.494C793.227,539.88 793.065,538.429 793.065,537.138C797.582,521.651 801.293,505.68 804.197,489.225C807.1,472.77 810.166,456.638 813.392,440.828C816.618,425.019 820.006,408.886 823.555,392.432C827.104,375.977 830.492,359.683 833.719,343.551L792.097,343.551L781.45,345.487C780.16,344.841 779.03,344.357 778.062,344.035C777.094,343.712 775.965,343.389 774.675,343.067C773.384,342.744 772.255,342.26 771.287,341.615C770.319,340.97 769.19,340.324 767.899,339.679C767.254,338.388 766.447,337.098 765.479,335.807C764.511,334.517 763.866,333.065 763.543,331.452C763.221,329.838 763.059,328.386 763.059,327.096L763.059,322.256L767.899,312.577C773.061,309.35 778.708,307.415 784.838,306.769C790.968,306.124 797.098,305.801 803.229,305.801L841.462,305.801C842.107,299.994 843.075,294.025 844.366,287.894C845.657,281.764 846.947,275.795 848.238,269.988C849.528,264.18 850.335,258.211 850.658,252.081C850.98,245.951 853.077,240.304 856.949,235.142C858.24,234.497 859.53,233.69 860.821,232.722C862.111,231.754 863.563,231.109 865.177,230.786C866.79,230.464 868.242,230.302 869.532,230.302L874.372,230.302L884.051,235.142C884.697,236.433 885.503,237.723 886.471,239.014C887.439,240.304 888.084,241.756 888.407,243.369C888.73,244.983 888.891,246.596 888.891,248.209L888.891,253.533C888.891,258.05 888.407,262.567 887.439,267.084C886.471,271.601 885.503,276.118 884.535,280.635C883.567,285.152 882.438,289.669 881.148,294.186C879.857,298.703 879.212,303.22 879.212,307.737C887.6,307.092 895.505,307.576 902.926,309.189C910.347,310.802 917.606,312.738 924.705,314.997C931.803,317.255 938.578,320.482 945.031,324.676C951.484,328.87 957.937,332.904 964.39,336.775L964.39,338.711L970.198,341.615L973.101,347.423L975.037,347.423L977.941,353.23L979.877,353.23C985.039,360.974 989.072,369.362 991.976,378.397C994.88,387.431 996.816,396.626 997.784,405.983C998.752,415.339 999.236,425.019 999.236,435.021L999.236,464.543C998.59,473.577 997.3,482.288 995.364,490.677C993.428,499.066 991.976,507.616 991.008,516.327C990.04,525.039 989.234,533.912 988.588,542.946C987.943,551.98 985.685,560.368 981.813,568.112C980.522,568.757 979.232,569.564 977.941,570.532C976.651,571.5 975.199,572.145 973.585,572.468C971.972,572.79 970.52,572.952 969.23,572.952L964.39,572.952ZM1096.03,435.505L1086.35,430.665C1079.9,418.405 1073.12,406.144 1066.02,393.883C1058.92,381.623 1051.99,369.524 1045.21,357.586C1038.44,345.648 1030.86,333.871 1022.47,322.256C1014.08,310.641 1009.24,298.058 1007.95,284.507L1012.79,274.827C1014.08,274.182 1015.37,273.375 1016.66,272.408C1017.95,271.44 1019.4,270.794 1021.01,270.472C1022.63,270.149 1024.08,269.988 1025.37,269.988L1030.21,269.988L1039.89,274.827C1045.7,287.088 1052.47,299.026 1060.22,310.641C1067.96,322.256 1075.22,334.033 1081.99,345.971C1088.77,357.909 1095.87,370.008 1103.29,382.268C1110.71,394.529 1115.71,407.435 1118.29,420.986L1113.45,430.665C1112.16,431.31 1110.87,432.117 1109.58,433.085C1108.29,434.053 1106.84,434.698 1105.23,435.021C1103.61,435.343 1102.16,435.505 1100.87,435.505L1096.03,435.505Z" style="fill:none;fill-rule:nonzero;stroke:rgb(73,73,73);stroke-width:14.49px;" class="tnHQQjAz_2"></path>
            <path d="M1382.35,576.823C1379.13,576.178 1375.9,575.371 1372.67,574.404C1369.45,573.436 1366.22,572.306 1362.99,571.016C1359.77,569.725 1356.54,568.112 1353.31,566.176C1350.09,564.24 1347.18,562.304 1344.6,560.368C1340.73,556.497 1337.51,552.302 1334.92,547.785C1332.34,543.268 1329.92,538.59 1327.66,533.75C1325.41,528.911 1324.12,523.91 1323.79,518.747C1323.47,513.585 1323.31,508.1 1323.31,502.292C1323.95,499.711 1324.6,497.291 1325.24,495.033C1325.89,492.774 1327.02,490.516 1328.63,488.257C1330.25,485.999 1331.86,483.902 1333.47,481.966C1335.09,480.03 1336.54,478.094 1337.83,476.158C1341.7,472.286 1346.06,468.737 1350.89,465.511C1355.73,462.284 1360.74,459.703 1365.9,457.767C1371.06,455.831 1376.06,453.734 1380.9,451.476C1385.74,449.217 1391.06,448.411 1396.87,449.056L1417.2,450.024L1417.2,434.537C1415.91,430.665 1415.26,426.471 1415.26,421.954L1415.26,408.403C1415.26,403.885 1415.1,399.368 1414.78,394.851C1414.46,390.334 1414.29,385.817 1414.29,381.3L1400.74,381.3L1369.77,384.204C1366.54,383.559 1363.32,382.752 1360.09,381.784C1356.86,380.816 1353.48,380.332 1349.93,380.332C1346.38,380.332 1342.99,379.848 1339.76,378.88C1336.54,377.913 1333.63,376.461 1331.05,374.525C1330.41,373.234 1329.6,371.944 1328.63,370.653C1327.66,369.362 1327.02,367.911 1326.7,366.297C1326.37,364.684 1326.21,363.232 1326.21,361.942L1326.21,357.102L1331.05,347.423C1332.99,346.132 1334.92,345.003 1336.86,344.035C1338.8,343.067 1340.73,342.583 1342.67,342.583L1357.19,342.583L1374.61,346.455L1413.33,343.551L1413.33,299.994L1412.36,280.635L1393,280.635C1389.77,281.926 1386.39,282.732 1382.84,283.055C1379.29,283.377 1375.58,283.377 1371.7,283.055C1367.83,282.732 1364.28,283.216 1361.06,284.507C1357.83,285.797 1353.96,286.12 1349.44,285.475L1339.76,280.635C1339.12,279.344 1338.31,278.054 1337.34,276.763C1336.38,275.473 1335.73,274.021 1335.41,272.408C1335.09,270.794 1334.92,269.342 1334.92,268.052L1334.92,263.212L1339.76,253.533C1344.28,249.016 1350.09,246.596 1357.19,246.273C1364.28,245.951 1371.06,245.467 1377.51,244.821C1383.97,244.176 1390.42,243.531 1396.87,242.885C1403.32,242.24 1410.1,242.24 1417.2,242.885L1449.14,246.757L1449.14,243.853L1448.17,231.27C1448.82,227.398 1449.62,223.527 1450.59,219.655C1451.56,215.783 1453.01,212.234 1454.95,209.008C1456.88,205.781 1458.82,202.555 1460.76,199.328C1462.69,196.102 1465.27,192.875 1468.5,189.649C1473.02,187.068 1477.37,184.325 1481.57,181.422C1485.76,178.518 1490.28,176.259 1495.12,174.646C1499.96,173.033 1505.12,172.387 1510.6,172.71C1516.09,173.033 1521.41,173.194 1526.58,173.194L1544,181.906L1550.77,188.681L1558.52,197.392C1561.1,201.264 1563.52,205.297 1565.78,209.492C1568.04,213.686 1569.33,218.203 1569.65,223.043C1569.97,227.882 1570.13,232.883 1570.13,238.046L1570.13,253.533C1568.84,256.759 1567.71,259.824 1566.74,262.728C1565.78,265.632 1564.49,268.536 1562.87,271.44C1561.26,274.343 1559.49,277.247 1557.55,280.151C1555.61,283.055 1553.68,285.797 1551.74,288.378C1548.52,290.96 1545.13,292.895 1541.58,294.186C1538.03,295.477 1534.16,296.122 1529.96,296.122C1525.77,296.122 1521.57,296.445 1517.38,297.09C1513.18,297.735 1509.15,298.058 1505.28,298.058C1500.76,297.413 1496.25,296.445 1491.73,295.154C1487.21,293.863 1482.86,292.089 1478.66,289.83C1474.47,287.572 1469.95,286.281 1465.11,285.959C1460.27,285.636 1455.27,285.152 1450.11,284.507L1450.11,299.026L1451.08,342.583L1466.56,342.583C1471.73,342.583 1476.89,342.744 1482.05,343.067C1487.21,343.389 1492.21,344.035 1497.05,345.003C1501.89,345.971 1506.25,347.745 1510.12,350.326C1510.77,351.617 1511.57,352.908 1512.54,354.198C1513.51,355.489 1514.15,356.941 1514.48,358.554C1514.8,360.167 1514.96,361.619 1514.96,362.91L1514.96,367.749L1510.12,377.429C1508.83,378.074 1507.54,378.88 1506.25,379.848C1504.96,380.816 1503.67,381.462 1502.38,381.784C1501.09,382.107 1499.63,382.268 1498.02,382.268C1496.41,382.268 1494.96,382.591 1493.66,383.236C1490.44,382.591 1487.21,381.946 1483.99,381.3C1480.76,380.655 1477.37,380.332 1473.82,380.332L1452.04,380.332L1452.04,399.691L1454.95,454.863C1458.82,455.509 1462.85,456.315 1467.05,457.283C1471.24,458.251 1475.44,459.38 1479.63,460.671C1483.82,461.962 1488.02,463.091 1492.21,464.059C1496.41,465.027 1500.12,466.801 1503.34,469.382C1503.99,470.673 1504.8,471.964 1505.76,473.254C1506.73,474.545 1507.54,475.997 1508.18,477.61C1508.83,479.223 1509.15,480.836 1509.15,482.45L1509.15,487.773L1504.31,497.453C1503.02,498.098 1501.73,498.905 1500.44,499.872C1499.15,500.84 1497.7,501.486 1496.09,501.808C1494.47,502.131 1492.86,502.292 1491.25,502.292L1485.92,502.292L1456.88,494.549C1457.53,500.356 1457.53,506.003 1456.88,511.488C1456.24,516.973 1455.43,522.458 1454.46,527.943C1453.5,533.428 1451.56,538.429 1448.66,542.946C1445.75,547.463 1442.69,551.98 1439.46,556.497L1435.59,560.368C1431.72,563.595 1427.85,566.337 1423.97,568.596C1420.1,570.854 1415.75,572.306 1410.91,572.952C1406.07,573.597 1401.39,574.404 1396.87,575.371C1392.35,576.339 1387.52,576.823 1382.35,576.823ZM1205.22,571.016L1195.54,566.176C1190.38,544.881 1187.8,522.619 1187.8,499.389C1187.8,476.158 1186.83,453.25 1184.89,430.665C1182.96,408.08 1181.99,385.172 1181.99,361.942L1181.99,292.25C1182.63,289.669 1182.96,287.088 1182.96,284.507C1182.96,281.926 1183.12,279.344 1183.44,276.763C1183.76,274.182 1184.41,271.762 1185.38,269.504C1186.35,267.245 1187.48,265.148 1188.77,263.212C1190.06,262.567 1191.35,261.76 1192.64,260.792C1193.93,259.824 1195.38,259.179 1196.99,258.856C1198.61,258.534 1200.06,258.372 1201.35,258.372L1206.19,258.372L1215.87,263.212C1217.16,265.148 1218.29,267.245 1219.26,269.504C1220.22,271.762 1220.71,274.021 1220.71,276.279L1220.71,291.282L1219.74,386.14C1221.03,397.11 1221.84,407.919 1222.16,418.566C1222.48,429.213 1222.97,439.86 1223.61,450.508C1224.26,461.155 1224.74,471.964 1225.06,482.934C1225.39,493.904 1225.87,504.551 1226.52,514.875L1228.45,514.875C1231.68,512.94 1234.74,511.004 1237.65,509.068C1240.55,507.132 1243.45,505.035 1246.36,502.776C1249.26,500.518 1252.49,498.905 1256.04,497.937C1259.59,496.969 1263.3,496.485 1267.17,496.485L1276.85,501.324C1277.49,502.615 1278.3,503.906 1279.27,505.196C1280.24,506.487 1280.88,507.939 1281.2,509.552C1281.53,511.165 1281.69,512.617 1281.69,513.908L1281.69,518.747L1275.88,529.395L1246.84,546.817L1246.84,548.753L1222.64,566.176C1221.35,566.821 1220.06,567.628 1218.77,568.596C1217.48,569.564 1216.03,570.209 1214.42,570.532C1212.8,570.854 1211.35,571.016 1210.06,571.016L1205.22,571.016ZM1403.65,535.202L1412.36,529.395C1414.29,526.813 1415.75,524.232 1416.71,521.651C1417.68,519.07 1418.33,516.327 1418.65,513.424C1418.97,510.52 1419.13,507.455 1419.13,504.228L1419.13,494.549L1418.17,487.773L1391.06,487.773C1388.48,489.064 1386.22,490.354 1384.29,491.645C1382.35,492.936 1380.09,493.904 1377.51,494.549C1374.93,495.194 1372.67,496.485 1370.74,498.421C1368.8,500.356 1366.87,502.292 1364.93,504.228C1364.28,504.873 1363.8,505.519 1363.48,506.164C1363.15,506.809 1362.83,507.616 1362.51,508.584C1362.19,509.552 1362.03,510.52 1362.03,511.488L1362.03,513.908L1368.8,530.362L1370.74,530.362L1380.42,537.138L1389.13,538.106L1403.65,535.202ZM1526.58,257.405C1528.51,255.469 1529.96,253.371 1530.93,251.113C1531.9,248.854 1532.38,246.435 1532.38,243.853L1532.38,227.398L1517.86,210.944L1505.28,210.944L1492.7,217.719C1492.05,219.655 1491.25,221.591 1490.28,223.527C1489.31,225.463 1488.5,227.237 1487.86,228.85C1487.21,230.464 1486.73,232.399 1486.41,234.658C1486.08,236.917 1485.92,239.014 1485.92,240.95L1491.73,252.565C1493.66,253.855 1495.44,255.146 1497.05,256.437C1498.67,257.727 1500.6,258.534 1502.86,258.856C1505.12,259.179 1507.38,259.34 1509.64,259.34L1516.9,259.34L1526.58,257.405Z" style="fill:none;fill-rule:nonzero;stroke:rgb(73,73,73);stroke-width:14.49px;" class="tnHQQjAz_3"></path>
            <path d="M1802.48,562.304C1785.71,559.078 1769.25,555.529 1753.12,551.657C1736.99,547.785 1720.53,543.914 1703.75,540.042C1686.98,536.17 1670.36,532.137 1653.9,527.943C1637.45,523.748 1621.48,518.747 1605.99,512.94C1605.35,511.649 1604.54,510.358 1603.57,509.068C1602.6,507.777 1601.96,506.325 1601.64,504.712C1601.31,503.099 1601.15,501.647 1601.15,500.356L1601.15,495.517L1605.99,485.837C1607.93,484.547 1609.7,483.418 1611.32,482.45C1612.93,481.482 1614.7,480.998 1616.64,480.998L1629.22,480.998C1644.71,486.805 1660.2,491.484 1675.68,495.033C1691.17,498.582 1706.98,502.131 1723.11,505.68C1739.25,509.229 1755.22,512.94 1771.03,516.811C1786.84,520.683 1802.48,524.555 1817.97,528.427C1818.62,529.717 1819.42,531.008 1820.39,532.298C1821.36,533.589 1822,535.041 1822.33,536.654C1822.65,538.267 1822.81,539.88 1822.81,541.494L1822.81,546.817L1817.97,556.497C1816.68,557.142 1815.55,557.949 1814.58,558.917C1813.61,559.884 1812.32,560.53 1810.71,560.852C1809.1,561.175 1807.64,561.336 1806.36,561.336C1805.06,561.336 1803.77,561.659 1802.48,562.304ZM1799.58,331.936C1798.29,331.29 1797.16,330.806 1796.19,330.484C1795.22,330.161 1794.09,329.838 1792.8,329.516C1791.51,329.193 1790.38,328.709 1789.42,328.064C1788.45,327.419 1787.32,326.773 1786.03,326.128C1785.38,324.837 1784.58,323.547 1783.61,322.256C1782.64,320.966 1782,319.514 1781.67,317.901C1781.35,316.287 1781.19,314.835 1781.19,313.545L1781.19,308.705L1786.03,299.026L1787.96,299.026L1792.8,288.378C1779.25,285.152 1765.54,282.087 1751.67,279.183C1737.79,276.279 1723.92,272.569 1710.05,268.052C1696.17,263.535 1682.14,260.47 1667.94,258.856C1653.74,257.243 1639.87,254.823 1626.32,251.597C1625.67,250.306 1624.87,249.016 1623.9,247.725C1622.93,246.435 1622.29,244.983 1621.96,243.369C1621.64,241.756 1621.48,240.304 1621.48,239.014L1621.48,234.174L1626.32,224.495C1628.26,223.204 1630.35,222.075 1632.61,221.107C1634.87,220.139 1637.29,219.494 1639.87,219.171C1642.45,218.848 1645.03,218.687 1647.61,218.687L1655.36,218.687C1670.84,219.978 1686.17,222.72 1701.33,226.915C1716.5,231.109 1731.82,235.303 1747.31,239.498C1762.8,243.692 1778.29,247.241 1793.77,250.145C1809.26,253.049 1824.1,258.372 1838.3,266.116C1838.94,267.407 1839.75,268.697 1840.72,269.988C1841.68,271.278 1842.33,272.73 1842.65,274.343C1842.98,275.957 1843.14,277.57 1843.14,279.183L1843.14,284.507L1838.3,294.186C1835.07,296.122 1832.65,298.542 1831.04,301.446C1829.42,304.349 1827.65,307.092 1825.71,309.673C1823.78,312.254 1821.84,314.997 1819.91,317.901C1817.97,320.804 1816.03,323.547 1814.1,326.128C1812.81,326.773 1811.68,327.419 1810.71,328.064C1809.74,328.709 1808.61,329.354 1807.32,330C1806.03,330.645 1804.74,330.968 1803.45,330.968C1802.16,330.968 1800.87,331.29 1799.58,331.936Z" style="fill:none;fill-rule:nonzero;stroke:rgb(73,73,73);stroke-width:14.49px;" class="tnHQQjAz_4"></path>
            <path d="M2137.9,581.663L2128.22,576.823C2127.57,575.533 2126.77,574.242 2125.8,572.952C2124.83,571.661 2124.19,570.209 2123.87,568.596C2123.54,566.983 2123.38,565.531 2123.38,564.24L2123.38,559.401L2128.22,549.721L2131.12,548.753C2133.71,543.591 2136.45,538.751 2139.35,534.234C2142.26,529.717 2144.68,524.716 2146.61,519.231C2148.55,513.746 2150,508.261 2150.97,502.776C2151.93,497.291 2152.1,491.322 2151.45,484.869C2150.81,482.934 2150.32,480.836 2150,478.578C2149.68,476.319 2149.03,474.222 2148.06,472.286C2147.1,470.35 2145.8,468.576 2144.19,466.963C2142.58,465.349 2140.8,463.575 2138.87,461.639C2135,458.413 2130.8,455.831 2126.28,453.896C2121.77,451.96 2116.93,450.83 2111.77,450.508C2106.6,450.185 2101.44,450.024 2096.28,450.024L2080.79,450.024C2074.34,450.024 2068.21,450.508 2062.4,451.476C2056.59,452.444 2050.95,453.734 2045.46,455.347C2039.98,456.961 2034.49,458.413 2029.01,459.703C2023.52,460.994 2017.88,461.639 2012.07,461.639C2010.78,460.994 2009.65,460.51 2008.68,460.187C2007.71,459.864 2006.58,459.542 2005.29,459.219C2004,458.897 2002.87,458.413 2001.9,457.767C2000.94,457.122 1999.81,456.477 1998.52,455.831C1997.87,454.541 1997.07,453.089 1996.1,451.476C1995.13,449.862 1994.32,448.249 1993.68,446.636C1993.03,445.023 1992.71,443.248 1992.71,441.312L1992.71,435.505C1994,425.18 1995.13,414.371 1996.1,403.079C1997.07,391.786 1998.03,380.816 1999,370.169C1999.97,359.522 2000.61,348.713 2000.94,337.743C2001.26,326.773 2001.74,315.803 2002.39,304.833L1963.67,304.833L1932.7,308.705C1931.41,308.06 1930.28,307.576 1929.31,307.253C1928.34,306.931 1927.21,306.608 1925.92,306.285C1924.63,305.963 1923.5,305.479 1922.53,304.833C1921.57,304.188 1920.44,303.543 1919.15,302.898C1918.5,301.607 1917.69,300.316 1916.73,299.026C1915.76,297.735 1915.11,296.283 1914.79,294.67C1914.47,293.057 1914.31,291.605 1914.31,290.314L1914.31,285.475L1919.15,275.795C1924.95,272.569 1931.57,270.633 1938.99,269.988C1946.41,269.342 1953.67,268.536 1960.77,267.568C1967.87,266.6 1975.29,266.277 1983.03,266.6C1990.77,266.923 1998.19,266.761 2005.29,266.116C2006.58,262.244 2007.39,258.211 2007.71,254.017C2008.04,249.822 2008.2,245.467 2008.2,240.95C2008.2,236.433 2008.52,232.077 2009.16,227.882C2009.81,223.688 2011.42,219.978 2014,216.751C2015.3,216.106 2016.59,215.299 2017.88,214.331C2019.17,213.363 2020.62,212.718 2022.23,212.395C2023.85,212.073 2025.3,211.912 2026.59,211.912L2031.43,211.912L2041.11,216.751C2043.04,219.332 2044.33,221.914 2044.98,224.495C2045.62,227.076 2045.95,229.98 2045.95,233.206L2045.95,252.565L2044.98,265.148C2054.66,265.148 2064.5,265.309 2074.5,265.632C2084.5,265.955 2094.34,266.277 2104.02,266.6C2113.7,266.923 2123.22,267.245 2132.58,267.568C2141.93,267.89 2150.81,270.31 2159.2,274.827C2159.84,276.118 2160.65,277.409 2161.61,278.699C2162.58,279.99 2163.23,281.442 2163.55,283.055C2163.87,284.668 2164.03,286.12 2164.03,287.411L2164.03,292.25L2159.2,301.93C2157.26,303.22 2155.48,304.349 2153.87,305.317C2152.26,306.285 2150.48,306.769 2148.55,306.769L2135.96,306.769C2128.22,305.479 2120.48,304.672 2112.73,304.349C2104.99,304.027 2096.92,303.704 2088.53,303.381C2080.15,303.059 2072.08,302.898 2064.34,302.898L2040.14,302.898C2039.49,312.577 2039.17,322.256 2039.17,331.936C2039.17,341.615 2038.69,351.294 2037.72,360.974C2036.75,370.653 2035.78,380.332 2034.82,390.012C2033.85,399.691 2033.36,409.37 2033.36,419.05L2035.3,419.05C2041.75,417.114 2048.53,415.662 2055.63,414.694C2062.72,413.726 2070.14,413.081 2077.89,412.758C2085.63,412.436 2093.21,412.274 2100.64,412.274L2123.38,412.274C2127.9,414.21 2132.58,415.985 2137.42,417.598C2142.26,419.211 2146.77,421.147 2150.97,423.406C2155.16,425.664 2159.2,428.729 2163.07,432.601C2166.94,436.473 2170.81,440.022 2174.68,443.248C2177.91,447.765 2180.49,452.282 2182.43,456.799C2184.36,461.316 2185.81,466.317 2186.78,471.802C2187.75,477.287 2188.55,482.611 2189.2,487.773C2189.85,492.936 2189.85,498.421 2189.2,504.228C2187.91,510.681 2186.46,517.134 2184.85,523.587C2183.23,530.04 2181.14,536.17 2178.55,541.978C2175.97,547.785 2172.75,553.593 2168.87,559.401C2165,565.208 2161.13,570.693 2157.26,575.855C2155.97,576.501 2154.52,577.307 2152.9,578.275C2151.29,579.243 2149.68,580.05 2148.06,580.695C2146.45,581.34 2144.84,581.663 2143.22,581.663L2137.9,581.663Z" style="fill:none;fill-rule:nonzero;stroke:rgb(73,73,73);stroke-width:14.49px;" class="tnHQQjAz_5"></path>
            <path d="M2493.76,572.952C2489.24,571.661 2484.89,570.532 2480.69,569.564C2476.5,568.596 2472.63,566.983 2469.08,564.724C2465.53,562.466 2461.98,559.723 2458.43,556.497C2454.88,553.27 2451.49,550.044 2448.27,546.817C2442.46,539.074 2437.78,531.008 2434.23,522.619C2430.68,514.23 2428.26,505.196 2426.97,495.517C2425.68,485.837 2423.58,476.481 2420.68,467.447C2417.78,458.413 2413.1,450.346 2406.65,443.248C2403.42,440.667 2400.03,438.247 2396.48,435.989C2392.93,433.73 2389.38,431.956 2385.84,430.665C2382.29,429.374 2378.58,428.407 2374.7,427.761C2370.83,427.116 2366.64,427.116 2362.12,427.761C2358.25,429.052 2354.38,429.697 2350.51,429.697C2346.63,429.697 2343.08,430.665 2339.86,432.601C2336.63,434.537 2333.41,436.634 2330.18,438.893C2326.95,441.151 2323.73,443.571 2320.5,446.152C2317.27,455.831 2314.05,465.672 2310.82,475.674C2307.59,485.676 2304.04,495.355 2300.17,504.712C2296.3,514.069 2293.07,523.91 2290.49,534.234C2287.91,544.559 2284.36,554.238 2279.85,563.272C2278.55,563.918 2277.26,564.724 2275.97,565.692C2274.68,566.66 2273.23,567.305 2271.62,567.628C2270.01,567.951 2268.39,568.112 2266.78,568.112L2261.45,568.112L2251.78,563.272C2251.13,561.982 2250.32,560.691 2249.36,559.401C2248.39,558.11 2247.74,556.658 2247.42,555.045C2247.1,553.432 2246.94,551.98 2246.94,550.689L2246.94,545.849C2255.33,520.038 2263.88,494.387 2272.59,468.899C2281.3,443.41 2289.69,417.598 2297.75,391.464C2305.82,365.329 2314.85,339.679 2324.86,314.513C2334.86,289.346 2344.38,264.18 2353.41,239.014C2354.7,238.368 2355.99,237.562 2357.28,236.594C2358.57,235.626 2360.02,234.981 2361.64,234.658C2363.25,234.335 2364.7,234.174 2365.99,234.174L2370.83,234.174L2380.51,239.014C2381.16,240.304 2381.96,241.756 2382.93,243.369C2383.9,244.983 2384.54,246.757 2384.87,248.693C2385.19,250.629 2385.35,252.565 2385.35,254.501L2385.35,260.308C2382.77,271.924 2379.22,283.055 2374.7,293.702C2370.19,304.349 2365.67,314.997 2361.15,325.644C2356.64,336.291 2352.6,346.939 2349.05,357.586C2345.5,368.233 2342.12,379.687 2338.89,391.948L2353.41,391.948C2355.35,391.302 2357.44,390.657 2359.7,390.012C2361.96,389.366 2364.22,389.044 2366.48,389.044L2379.54,389.044C2383.41,390.98 2387.61,392.27 2392.13,392.916C2396.64,393.561 2400.68,394.851 2404.23,396.787C2407.78,398.723 2411.32,400.82 2414.87,403.079C2418.42,405.337 2421.81,407.435 2425.04,409.37L2425.04,411.306L2433.75,416.146L2433.75,418.082L2435.68,418.082C2442.14,426.471 2447.62,435.021 2452.14,443.732C2456.66,452.444 2459.56,461.962 2460.85,472.286C2462.14,482.611 2464.24,492.613 2467.14,502.292C2470.05,511.972 2475.37,520.683 2483.11,528.427C2485.05,529.717 2486.98,530.846 2488.92,531.814C2490.86,532.782 2492.79,533.589 2494.73,534.234C2496.66,534.879 2498.6,535.202 2500.53,535.202L2507.31,535.202C2508.6,533.912 2510.22,533.266 2512.15,533.266C2514.09,533.266 2515.86,532.782 2517.47,531.814C2519.09,530.846 2520.7,529.878 2522.31,528.911C2523.93,527.943 2525.38,526.813 2526.67,525.523L2538.28,505.196C2539.58,504.551 2540.87,503.744 2542.16,502.776C2543.45,501.808 2544.9,501.002 2546.51,500.356C2548.13,499.711 2549.74,499.389 2551.35,499.389L2556.68,499.389L2566.36,504.228C2567,505.519 2567.81,506.809 2568.78,508.1C2569.74,509.391 2570.39,510.842 2570.71,512.456C2571.03,514.069 2571.2,515.682 2571.2,517.295L2571.2,522.619C2569.9,525.2 2568.61,527.943 2567.32,530.846C2566.03,533.75 2564.58,536.493 2562.97,539.074C2561.35,541.655 2559.58,544.236 2557.64,546.817C2555.71,549.399 2554.09,551.98 2552.8,554.561L2550.87,554.561L2550.87,556.497C2546.35,559.078 2541.99,561.498 2537.8,563.756C2533.61,566.015 2529.09,567.951 2524.25,569.564C2519.41,571.177 2514.57,572.306 2509.73,572.952C2504.89,573.597 2499.57,573.597 2493.76,572.952Z" style="fill:none;fill-rule:nonzero;stroke:rgb(73,73,73);stroke-width:14.49px;" class="tnHQQjAz_6"></path>
        </g>
    </g>
<style data-made-with="vivus-instant">.tnHQQjAz_0{stroke-dasharray:3552 3554;stroke-dashoffset:3553;animation:tnHQQjAz_draw_0 7200ms linear 0ms infinite,tnHQQjAz_fade 7200ms linear 0ms infinite;}.tnHQQjAz_1{stroke-dasharray:1942 1944;stroke-dashoffset:1943;animation:tnHQQjAz_draw_1 7200ms linear 0ms infinite,tnHQQjAz_fade 7200ms linear 0ms infinite;}.tnHQQjAz_2{stroke-dasharray:1871 1873;stroke-dashoffset:1872;animation:tnHQQjAz_draw_2 7200ms linear 0ms infinite,tnHQQjAz_fade 7200ms linear 0ms infinite;}.tnHQQjAz_3{stroke-dasharray:2783 2785;stroke-dashoffset:2784;animation:tnHQQjAz_draw_3 7200ms linear 0ms infinite,tnHQQjAz_fade 7200ms linear 0ms infinite;}.tnHQQjAz_4{stroke-dasharray:1064 1066;stroke-dashoffset:1065;animation:tnHQQjAz_draw_4 7200ms linear 0ms infinite,tnHQQjAz_fade 7200ms linear 0ms infinite;}.tnHQQjAz_5{stroke-dasharray:1466 1468;stroke-dashoffset:1467;animation:tnHQQjAz_draw_5 7200ms linear 0ms infinite,tnHQQjAz_fade 7200ms linear 0ms infinite;}.tnHQQjAz_6{stroke-dasharray:1404 1406;stroke-dashoffset:1405;animation:tnHQQjAz_draw_6 7200ms linear 0ms infinite,tnHQQjAz_fade 7200ms linear 0ms infinite;}@keyframes tnHQQjAz_draw{100%{stroke-dashoffset:0;}}@keyframes tnHQQjAz_fade{0%{stroke-opacity:1;}94.44444444444444%{stroke-opacity:1;}100%{stroke-opacity:0;}}@keyframes tnHQQjAz_draw_0{11.11111111111111%{stroke-dashoffset: 3553}38.88888888888889%{ stroke-dashoffset: 0;}100%{ stroke-dashoffset: 0;}}@keyframes tnHQQjAz_draw_1{13.425925925925924%{stroke-dashoffset: 1943}41.2037037037037%{ stroke-dashoffset: 0;}100%{ stroke-dashoffset: 0;}}@keyframes tnHQQjAz_draw_2{15.740740740740739%{stroke-dashoffset: 1872}43.51851851851851%{ stroke-dashoffset: 0;}100%{ stroke-dashoffset: 0;}}@keyframes tnHQQjAz_draw_3{18.055555555555554%{stroke-dashoffset: 2784}45.83333333333333%{ stroke-dashoffset: 0;}100%{ stroke-dashoffset: 0;}}@keyframes tnHQQjAz_draw_4{20.37037037037037%{stroke-dashoffset: 1065}48.148148148148145%{ stroke-dashoffset: 0;}100%{ stroke-dashoffset: 0;}}@keyframes tnHQQjAz_draw_5{22.685185185185183%{stroke-dashoffset: 1467}50.462962962962955%{ stroke-dashoffset: 0;}100%{ stroke-dashoffset: 0;}}@keyframes tnHQQjAz_draw_6{25%{stroke-dashoffset: 1405}52.77777777777778%{ stroke-dashoffset: 0;}100%{ stroke-dashoffset: 0;}}</style></svg>
